<?xml version="1.0" encoding="UTF-8"?><svg id="_レイヤー_1" xmlns="http://www.w3.org/2000/svg" viewBox="0 0 681.32 209.73"><defs><style>.cls-1{fill:#000;stroke-width:0px;}</style></defs><path class="cls-1" d="M15.24,25.23c-4.7,2.3-8,4.1-9.6,5.2-1.7,1.2-2.9,1.7-3.4,1.6-.6-.1-1-.5-1.3-1-.3-.5-.2-1.1.2-1.9.3-.8,1.8-1.9,4.5-3.1,2.6-1.3,6.6-3.3,11.9-5.9-1.7-6.3-2.4-10.8-2.4-13.9V.82c0-.7.2-.9.9-.8s1.3.4,1.8.8c.5.3.9,1.2,1.2,2.5,0,5,.6,10.1,1.9,15.2,2.1-.7,3.4-1.2,4.3-1.9.8-.7,1.6-1.3,2.4-1.8.9-.5,1.6-.4,2.3.5.7.9.9,1.7.6,2.4-.3.6-1,1.1-1.9,1.4-4.2,1.7-8.6,3.7-13.4,6.1ZM15.14,83.53c-2.6.6-4.2-.3-4.9-2.7-.7-2.3-1.1-6.3-1.1-12.1-1.7-1.5-2.2-2.9-1.5-4,.6-1.1,1.7-2.4,3.3-4.1,1.4-1.6,4.2-3.2,8.3-4.9,4.2-1.6,6.9-2,8.4-1.2,1.4.7,2.4,2.4,3,5,.5,2.7,1,5.9,1.2,9.8.2,2.8-.4,5.5-2,7.9-1.6,2.5-2.6,2.9-3.1,1.3-5.2,2.7-9,4.4-11.6,5ZM9.53,41.13c-1.1-.6-1.4-1.4-.7-2.3.7-.8,2.1-1.9,4.4-3.2,2.2-1.2,4.7-2.3,7.3-3.3,2.7-1,4.1-1.4,4.4-1.2.3.2.7.5,1,1,.3.5.2,1.1-.3,1.8-.5.6-2.1,1.3-4.7,2-6.5,4-10.3,5.8-11.4,5.2ZM9.63,50.23c-.3-1.3.6-2.2,2.7-2.7,2.2-.5,4-1,5.7-1.8,1.3-.7,2.8-1.6,4.3-2.8,1.4-1.1,2.5-1.3,3.4-.4.8.8.9,1.6.4,2.5s-3.9,2.5-10.1,5.2c-4,1.2-6.1,1.2-6.4,0ZM14.03,80.23c4.6-1.9,9-4,13.2-6,.7-4.2.8-7.7.2-10.7-.7-3.1-1.8-4.8-3.5-5.5-4.3,1.3-7.9,3.4-10.8,6.4-.4,5.2-.1,10.5.9,15.8ZM77.34,74.23c.1,6-.3,10.2-1.4,12.4s-2.4,3.3-3.8,3c-1.5-.3-2.6-.7-3.3-1.3-.8-.7-1.1-1.4-.9-2.1.1-.7,1-.9,2.5-.5,1,.3,1.7-.1,2.1-1,.5-13.2.6-23.9.2-32-9.9,2.7-16.4,4.7-19.7,5.9.7,2.3,1.5,4.7,2.6,6.9,1,2.2,2.3,3.6,4.1,4,1.7.4,2.2,1.1,1.3,2.2-.8,1-2.3,1.1-4.2.3-1.8-.7-3.4-2.3-4.5-4.7-1.2-2.5-2.5-4.7-3.8-6.8-3.6,1.2-6.8,2.3-9.8,3.1-3,.9-4.8.9-5.4-.1-.7-.9.7-2,3.9-3.3,3.2-1.2,6.4-2.3,9.3-3.2-.3-1.1-.3-2,.1-3,.3-1,1.2-1.3,2.5-1s2.2,1,2.6,2.1c5.4-1.6,12.4-3.7,20.9-6.3.1-3.4-.2-6.9-.7-10.7,0-1.5.8-2.2,2.4-2.1,1.7.1,2.4.8,2.2,2.1.1,3.1.3,6.1.5,9.1,6.3-1.9,10.5-3.2,12.4-3.7,1.8-.5,2.7.1,2.7,1.8-.3,1.3-1.2,2-2.5,2.2-1.4.2-5.6,1.4-12.6,3.6.1,9.4.2,17.1.3,23.1ZM61.44,33.63c11.3-3.4,18.8-5.7,22.5-7,3.7-1.2,5.9-1.6,6.4-1.2.5.4.7,1.1.5,2.2-.3,1.1-.7,1.9-1.1,2.4-.5.4-2.2.7-4.8,1-13.5,3.5-24.1,7-32.1,10.2-7.9,3.2-12.7,5-14.1,5.3-1.5.3-2.2-.4-2-2.1.2-1.7.7-2.4,1.5-2.4s2.6-.6,5.6-1.7c2.9-1.1,7.3-2.8,13.2-5.2-.4-6.9-.7-12.1-.8-15.6-5.6,3.2-10.2,5.3-13.7,6.2-3.6.8-5.7.9-6.3.3-.6-.7-.7-1.2-.4-1.7.2-.5,2.3-1.3,6.2-2.5,3.8-1.3,8.7-3.5,14.5-6.6.3-5.6.6-9.3.8-11,.1-1.8.5-3,1.1-3.4.5-.5,1.2-.1,2,1.2.7,1.4,1,2.9.8,4.4-.2,1.6-.3,3.8-.6,6.9,3-1.9,5.4-3.2,7.5-3.9,2-.8,3.8-1.1,5.3-.9,1.6.2,2.4.8,2.4,1.7,0,1-1.4,1.8-4.1,2.5-2.8.7-6.6,2.4-11.3,5.2.2,1.3.4,3.1.6,5.1.2,5.2.3,8.7.4,10.6Z"/><path class="cls-1" d="M174.44,33.63c.5,1,.5,1.8,0,2.3-.5.5-1.5,1.1-3,1.6s-5.2,2.1-11,4.9c4.4,5.5,6,11.4,4.7,17.4-1.2,6.1-3.5,11.4-6.7,15.8-3.2,4.4-6,7.7-8.5,9.8-2.4,2.2-4.5,3.6-6.2,4.3-1.8.7-3.6-.3-5.4-3-.3-1.6-.3-2.9-.2-4.1.1-1.2.6-1.8,1.4-1.8.7,0,1.3.4,1.8,1.3.5.9,1.3,2.2,2.5,4,4.6-3.9,8.8-9.1,12.7-15.4,3.9-6.4,5.4-12.1,4.7-17.1-.6-5-2.5-7.6-5.5-7.9-15.3,6.9-23.5,10.5-24.5,10.9-1.1.4-2,.5-2.7.3-.7-.2-.9-.8-.8-1.7.1-.8.4-1.5.7-1.8s3.1-1.6,8.1-3.7c5.1-2.2,9.8-4.3,14.1-6.4-6.4-1-10.8-.7-13.5.8-2.6,1.6-4.4,2.1-5.3,1.4-.8-.7-.9-1.5-.2-2.4.6-.8,3.7-5.3,8.8-13.4,5.2-8.1,7.8-16.5,7.5-25.4-6.7-.7-13,1.2-19,5.7-5.9,4.5-9.4,6.7-10.2,6.6-.9-.1-1.2-.8-1.1-2,.1-1.1,2.4-3.3,7-6.4s9.2-5.5,14-7c4.8-1.4,8.5-1.5,11.1-.2,2.7,1.2,3.8,3.3,3.3,5.9-.4,2.6-1.1,6.4-2.1,10.9-1,4.6-5,11.8-12,21.2,8.5-.3,13.9.2,16.6,1.4,8.6-3.8,14.2-6.3,17-7.8.8-.4,1.4-.1,1.9,1Z"/><path class="cls-1" d="M209.24,27.13c-3.6,1.7-5.4,1.8-5.6.3-.3-1.4,1.1-2.7,3.9-3.9,2.8-1.1,9-3.4,18.4-6.8,0-2.2-.1-4.2-.5-6.2-.4-1.8-.1-3.1.8-3.7,1-.5,1.9-.7,2.7-.5.7.2,1.2.8,1.3,1.7.2,1,.3,3.3.4,7.1,4.9-1.6,8.6-2.5,11.1-2.6,2.4-.1,3.7.4,3.7,1.2,0,.9-.6,1.7-1.7,2.2-1.1.6-5.5,1.8-13.1,3.6-.2,10-.2,19,0,27.2,6.4-3.2,13.2-4.7,20.4-4.7.5-8.4,1.1-14.9,1.9-19.3.7-4.4,1.5-6.7,2.2-7.1.7-.3,1.3-.3,1.7.1s.8,1,1.3,1.7c.4.7.1,3.5-.9,8.1-1,4.7-1.6,10.3-1.8,17.1,5.9,3,10,7.7,12.2,14.2,1.2,6.5,1,11.3-.4,14.6-1.6,3.2-3.1,4.8-4.3,4.8-1.4,0-2.2-.4-2.4-1.4-.2-1,0-1.9.6-2.7.6-.6,1.3-1.4,2-2.1,1-6.6.4-11.8-2-15.5-2.4-3.7-4.5-5.9-6-6.6.1,1.4.1,2.8,0,4-.3,1.4-.7,2.2-1.2,2.4-.6.2-1.3.1-2.2-.3-.8-.4-1.1-2.9-.8-7.4-7.2-.8-13.8.8-20.1,4.8-.1,3.9-.7,8.8-1.6,14.8-1,5.9-4.5,10.5-10.7,14-3.8,2.3-6.7,1-8.8-3.8-2-4.7-.9-10,3.1-15.6,3.2-5.3,7.6-9.1,13.1-11.5v-27.9c-7.6,2.2-13.1,4.2-16.7,5.7ZM225.94,54.03c-7.6,4.9-11.8,11.1-12.6,18.8.4,3.8,2.7,4.2,6.8,1.1,3.9-5,5.8-11.6,5.8-19.9Z"/><path class="cls-1" d="M292.23,57.53c-.9-.7-1-1.8-.1-3.1.8-1.4,2-2.9,3.6-4.4,1.5-1.6,3.8-3.7,6.6-6.5,2.3-12.4,4.2-21.7,5.9-28.1,1.6-6.3,2.6-9.8,2.7-10.2.1-.5.7-.5,1.6-.2.9.2,1.1,2,.8,5.1-.4,3.2-1.2,6.4-2.4,9.8s-2.6,10.3-4.3,20.7c4-2.2,8.5-5.2,13.5-8.8-.3-.9-.2-1.8.2-2.9.4-1.1.9-1.6,1.5-1.6.7,0,1.6.5,2.8,1.6,1.4-1.1,2.5-1.8,3.4-2.1.9-.3,1.7.1,2.5,1.2.9,1.1,1,2,.4,2.6-.6.7-1.2.9-2,.8-.8-.1-2.3.5-4.3,2-1.5,11-2.3,21.9-2.6,32.6,1.9,0,3.4-.2,4.5-.7,1.2-.5,2.4-.9,3.6-1.4,1.1-.4,2-.1,2.7,1s0,2.2-2.1,3.2c-2,1.1-5,1.6-9.2,1.6-.3,3.1-.3,5.3-.2,6.3.1,1.1-.6,1.7-2.2,1.7-1.5,0-2.2-1.1-2-3.1.2-2.1.5-3.7.8-4.9-6.7-.7-11.3-2.2-13.5-4.9-2.3-2.6-3.4-5.1-3.3-7.4.1-2.3.3-5.3.6-8.8-1.8,1.2-4.2,4-7.2,8.6-.7.9-1.5,1-2.3.3ZM306.24,61.33c3,2.8,7,4.4,11.7,4.7,1.1-10.1,1.7-20,2-29.9-5.2,3.4-9.8,6.6-13.7,9.4-1.8,5.4-1.8,10.6,0,15.8ZM330.44,51.23c-.6-1.4-.6-2.5,0-3.2.7-.7,1.3-1,2-1s1.2.8,1.5,2.3c.3,1.5.8,2.9,1.6,4.2,3.4,4.2,6.7,6.5,9.8,7.2,3.1.7,4.8,1.1,5,1.4.2.3,0,.8-.7,1.6-.7.9-1.8,1.3-3.3,1.3-1.6,0-3.5-.5-5.6-1.5-2.2-.9-4.7-3.1-7.7-6.5l-.6-1c-.7-1.6-1.3-3.3-2-4.8ZM332.94,27.83c-.2-1.3.3-1.8,1.3-1.9,1.1-.1,8.5-2.4,22.2-7-1.4-4-2-7.2-1.8-9.5.2-2.2.5-3.7.7-4.2.3-.6.9-.6,1.6,0,.7.5,1.3,2,1.7,4.2.4,2.3,1,5.1,2.1,8.5,5.2-1.6,9.3-2.6,12.3-2.7s4.5.2,4.4,1.1c-.1.9-.2,1.4-.4,1.8-.2.4-.6.9-1.2,1.4-.7.5-1.3.5-1.8,0s-1.9-.6-3.9-.2c-2.1.4-4.9,1.5-8.4,3.1-.9,2.8-2.3,2.9-3.9.4-4.7,1.2-8.7,2.4-12,3.4-3.3,1.1-7.2,2.2-11.5,3.3-.7.1-1.2-.4-1.4-1.7ZM374.44,37.43c2.8,1,4.7,1.8,5.6,2.7.8.9,1.3,2.1,1.5,3.6.2,1.6-.5,4-1.9,7.3-1.5,3.4-3.8,6.1-7.1,8.3-3.2,2.1-5,3.2-5.7,3.2s-1-.5-1.1-1.5.3-1.6,1-1.6c.7-.1,1.5-.9,2.5-2.3,1-1.4,2.9-3.4,5.8-6.2,2.8-2.9,3.2-6,1.1-9.5-4.6-.5-9.4.1-14.2,1.7.1,9.7.5,22.1,1,37.3.7,0,1.3-.1,1.6-.2.3,0,.8-.2,1.5-.4.7-.2,1,.1,1,.7,0,.7-.5,1.8-1.5,3.1-1,1.2-2.2,1.8-3.8,1.7-1.6-.1-2.5-1.5-3-4.3-.5-2.7-.8-14.7-1.1-36.1-6.4,2.4-10.8,5-13.1,7.4-2.3,2.5-3.7,3.8-4,4-.3.2-.8.1-1.3-.2-.5-.3-.7-.9-.5-1.9.2-1,2.3-3.1,6.1-6.1s8.1-5.4,12.8-7.1c.4-1.5.5-3.8.4-7.2-.1-3.5.2-5.2,1-5.3.7-.1,1.4-.1,1.9,0s.9,1.7,1,4.6c.1,2.9.2,4.9.2,5.7,5.4-1.9,9.5-2.4,12.3-1.4Z"/><path class="cls-1" d="M407.24,39.23c-.8-1.4,1.8-3.9,7.6-7.1,5.8-3.2,14.7-7.8,26.6-13.8-8.1-5.8-12.3-8.9-12.5-9.4-.2-.4-.2-1,0-1.9.2-.9.6-1.3,1.2-1.3.7,0,5.9,3.4,15.6,10.1,1.6-1.3,3.4-2.6,5.2-4.1,1.9-1.5,3.6-1.9,4.8-1.2,1.3.7,1.7,1.4,1.3,2.2-.5.8-1.5,1.6-3.1,2.5-1.7.9-3.2,2.1-4.5,3.7,7.3,5.5,12,11.6,14,18.6,2.1,6.9,2.4,10.9.9,12-1.5,1.1-3.1,2-4.8,2.8-1.6.9-2.9,1.2-3.8,1.1-.8-.1-.8-.6,0-1.5.9-.9,2.1-2,3.5-3.3,1.5-1.3,2.1-2.9,1.8-5.1-2.2-10-7.6-17.5-16-22.6-11.8,5.8-23.2,12.2-34,18.9-1.8,1.1-3.1.9-3.8-.6ZM445.44,79.53c.6.8.5,1.8-.4,2.9-.9,1.1-3.7.7-8.5-1.1-4.9-1.7-9.2-4-13-6.6-3.8-2.7-5.7-4.4-5.7-5.3s.3-1.4,1-1.6c.7-.1,2.8.9,6.4,3.2,3.5,2.3,9,4.8,16.6,7.2,1.7,0,2.9.4,3.6,1.3Z"/><path class="cls-1" d="M575.34,60.63c.1,1.3-.8,2.9-2.8,4.6-2,1.8-4.8,4.4-8.4,7.8-3.6,3.4-7.9,5-12.8,4.5-3.2-2-5.5-4.6-6.9-7.6-1.5-3-3.3-5.5-5.8-7.5-5.1,1.2-9.7,3.3-13.5,6.3-3.8,3.1-6.9,5.2-9.1,6.3-2.3,1.1-4,1.2-5.5.3-1.4-.9-2.3-2.9-2.7-5.7s-.8-5.5-1.2-7.9c0-16.5,2.2-32.7,6.6-48.4.4-1.2,1.1-1.8,2.2-1.8,1,0,1.7.8,2.2,2.3.3,1.7.3,3.7-.1,6.1-6.9,16.6-8.3,33.6-4.3,51,2-.4,5-2,8.8-4.8,3.9-2.7,9-5.4,15.5-7.9,4.4,0,7.3,1.9,8.8,5.7,1.3,3.8,3.7,7.2,6.9,10,4.7-1.8,8.3-3.9,10.9-6.3,2.7-2.5,4.3-4.7,5-6.6.7-1.8,2.3-2.6,4.7-2.2.8,0,1.3.6,1.5,1.8Z"/><path class="cls-1" d="M.23,173.83c.4-8.2,3.2-18.4,8.4-30.5,5.2-12.1,9.6-19.5,13.4-22.3,3.8-2.8,5.9-3.9,6.5-3.3.6.6.2,1.7-1.1,3.3-1.5,1.5-3.5,4-6,7.4-11,14.6-16.9,31.9-17.6,51.9,7.5-7.9,13.8-12.7,19-14.2,5-1.5,8.7-1.8,10.7-.7,2.1,1.1,3.9,3.9,5.6,8.5,1.5,4.6-1,9.3-7.7,13.9-6.8,4.8-13.5,6.5-20.5,5.1-6.9-1.2-10.3-2.7-10.3-4.2-.7-1.6-.8-6.6-.4-14.9ZM6.13,185.23c0,1.8,2.4,3.2,7.3,4.4,4.8,1.3,9.7-.2,14.6-4.2,4.9-4,7.3-7.2,7-9.9-.3-2.5-1.1-4.4-2.6-5.6-1.4-1.3-3.9-1.3-7.1-.2-8,2.6-14.4,7.8-19.2,15.5Z"/><path class="cls-1" d="M80.24,148.13c.1,2.4-.6,3.7-1.8,3.8-1.4.1-2.4-.8-3-2.4-.6-1.7-.3-4,.8-6.9,1.4-7.9,2.6-13.3,3.7-16.2,1.1-2.8,1.8-4.6,2.1-5.2.3-.5.8-.7,1.5-.4.7.2,1.4.5,2.1.8.7.3.7,1,.1,2-.6,1-1.1,2.2-1.5,3.7-.5,1.5-1.2,4.7-2.1,9.5,13.3-3.1,23.8-5.4,31.5-7.3,7.6-1.8,11.5-2.8,11.8-3.1.2-.3.5.2.8,1.4.3,1.2.3,2.1-.1,2.9-.5.8-1.7,2-3.5,3.4-1.9,1.5-3,1.9-3.4,1-.5-.9-.5-1.7-.2-2.6-4.3.8-8.7,1.6-13.1,2.7-.3,6.2-.5,10.8-.6,14.1,2.3-.9,4.2-1.6,5.7-2,1.3-.4,3.1-.8,5.2-1.3,2.2-.4,3.8-.6,4.6-.6.9,0,1.9.6,2.8,1.8.8,1.3.2,2-1.9,2.1-2,.1-4,.5-5.8.9-1.8.5-5.3,1.7-10.7,3.4-.1,2.8-.3,9.7-.6,20.7,21-4.7,32-6.7,32.8-5.9.8.8,1.1,1.6.9,2.5-.2.8-.7,1.1-1.6.9-.8-.2-11.6,2.1-32.2,6.8-.5,8.2-.8,15.2-.9,21-.1,5.7-.3,8.8-.6,9-.3.3-1.1.5-2.4.6-1.3.1-1.7-2.8-1.4-8.8.2-5.9.5-12.7.8-20.3-2.4.7-12.6,3.1-30.4,7.1-3,.8-4.6.9-5,.1-.4-.9-.5-1.6-.3-2.3.2-.7,5.8-2.4,16.8-5.3-.9-8.9-1.3-14.3-1.3-16.2-.1-1.8.3-3.5,1-5,.7-1.4,3.5-2.9,8.4-4.2,4.9-1.4,8.7-2.6,11.5-3.5.1-4.4.4-9.2.8-14.4-2.3.5-5.3,1.3-9.2,2.1-3.9.9-7.7,2.1-11.4,3.4-.5,1.6-.8,3.8-.7,6.2ZM100.64,155.33c-8.1,2.7-13.5,4.5-16.2,5.7-.3,8.5-.2,14.5.5,18.2,4.3-1.2,9.4-2.3,15.2-3.4.1-8.5.3-15.3.5-20.5Z"/><path class="cls-1" d="M168.13,209.73c-1.5,0-2.6-3.8-3.5-11.4-.9-7.5-1.9-18.8-2.9-33.6-.4-12.4-.1-21.5.9-27.4,1.1-6,1.7-9.1,1.9-9.5.2-.3.8-.5,1.6-.5.9,0,1.4.6,1.4,1.9,0,1.2-.1,2.8-.2,4.5,5.2-4.3,10.9-7.2,17-8.6,4.4-.3,7.7.6,10,3.1,2.6,5.6,3.6,10.8,2.9,15.4,1.1.4,1.5,1,1.4,1.7-.1.7-.8,1.7-2,3.2-.4,3.6-.8,5.6-1.1,5.8-.3.1-1,.3-2.1.5s-1.7-.4-1.7-2c-8.3,6.2-16.9,11.9-25.6,16.9,1.3,16.2,2.3,26.2,2.8,30,.5,3.8,1.1,6,1.6,6.7.6.7.7,1.5.3,2.2-.4.7-1.2,1.1-2.7,1.1ZM190.64,138.13c.4,1.2.6,2.1.4,2.6-.1.5-.8.8-1.9.8s-1.9.1-2.2.3c-.2.1-2.1,1.1-5.5,3-3.4,1.8-6.6,4.7-9.5,8.3-2.9,3.6-4.8,5.4-5.6,5.4-.6,2.2-.8,4.2-.5,6.3,10.1-4.3,19-10.3,26.5-17.9,1.7-4.7,1.3-10-1.2-16-1.2-1.6-3.6-2.4-6.8-2.3-3.2.2-5.9,1.3-8,3.6-3.6,2.1-6.7,4.9-9.4,8.1-.7,5.7-1,10.3-1,13.9,6.6-7,11.7-11.8,15.5-14.4,3.8-2.6,6-3.9,6.8-3.6,1.1.2,1.9.9,2.4,1.9ZM181.14,178.63c-.2-8.2.5-12.5,1.9-12.8,1.5-.3,2.4.1,2.5,1.1.1,1.2,0,2.9-.4,5.1,5.8-4.9,12.1-7.4,19.1-7.5,3.6.6,6.2,1.4,7.6,2.4,1.5.9,2.3,3.6,2.6,7.9.3,4.3-.8,10.3-3.1,18.2,1.9-1.1,3.1-1.3,3.4-1.1.3.4.4,1,.3,1.8-.1.9-1.9,2-5.3,3.2-2.1,4.2-3.7,5.6-4.9,4-5.1,2.2-9.2,3.5-12.4,3.7-3.2.3-4.8,0-4.8-1-4.2-8.4-6.3-16.7-6.5-25ZM186.84,191.53c6.7-4.3,13.6-8,20.9-10.9.7-.5,1.5-.3,2.6.6.7-3.4.6-6-.1-8.1-.7-2-1.4-3.2-2.1-3.8-9.2-1.8-16.9.9-22.8,7.9,0,4.6.5,9.3,1.5,14.3ZM209.74,184.03c-7.3,3.1-14.6,6.7-22.1,10.9.8,2.4,1.7,4.4,2.6,6,5.3-.7,10.4-2.3,15.4-4.9,2-3.7,3.4-7.6,4.1-12ZM216.94,123.52c3.2-2,6.7-2.7,10.6-2.4,4-.6,7.5.7,10.3,4.3,2.3,3.7,3.3,7.9,3.3,12.5.3,18.9.2,33.1-.1,42.6-.2,9.7-.5,15.9-.7,19-.2,3.1-.7,4.9-1.4,5.6-.7.7-1.7,1-2.9.9-1.3-.2-1.5-1.6-.8-4.5.7-2.8,1.2-20.3,1.5-52.6-10.7,5.5-18.3,9.1-22.9,10.5-4.6,1.5-7,2.2-7.3,2-.3-.2-.9-.4-1.6-.7-.7-.2-1.1-1.5-1.2-3.8-.1-2.3-.4-3.6-1.2-4-1.1-8.5-1.2-15.2-.5-19.8.7-4.7,1.4-7.4,1.9-7.9.6-.6,1.3-.5,2.2.1.9.8,1.2,1.5,1,2-.2.6-.1,1.3.3,2,3.2-1.9,6.4-3.8,9.5-5.8ZM217.74,126.82c-4,2.4-7.7,5.2-10.9,8.4-.7,4.3-.7,7.8,0,10.7,5.8-2.6,11.8-5.1,17.7-7.7,6-2.4,10.1-3.7,12.2-3.7-.3-5.5-2.1-8.6-5.3-9.1-5.1-1.4-9.7-.9-13.7,1.4ZM236.74,138.83c-3.3.3-7.2,1.5-11.7,3.4-4.5,2.1-10.4,4.7-17.8,8.1,1,3.4,1.3,5.9.9,7.6,9-4.4,18.4-8.8,28.2-13.4l.4-5.7Z"/><path class="cls-1" d="M266.43,153.53c-.1-1,.1-1.6.7-1.8.5-.2,2.9-1,6.9-2.4,4-1.5,9.9-4,17.8-7.6.7-4.6,1.6-8.1,2.5-10.3.8-2.1,1.5-3.3,1.9-3.5.3-.1.9-.3,1.6-.5.7-.2,1.3,0,1.6.5.4.6-.5,4.5-2.8,11.6,7.3-3.6,12.3-6,14.9-7.3,2.4-1.3,4.1-1.9,4.9-1.8.9.1,1.1.6.6,1.7s-1.1,1.9-2.2,2.6c-1.1.7-7.5,3.8-19.4,9.4-.9,4.9-1.8,10.4-2.5,16.6,6.5-4.4,13.6-6,21.2-4.9,8.3,1.1,14.6,5.5,19,13,2.3,9.9,1.2,17.5-3.1,22.7-4.3,5.1-7.4,8.4-9.5,9.4-2,1.1-3.4,1.5-3.9,1.1-.6-.4-.8-1.2-.8-2.2,0-1.1.9-2.2,3-3.3,1.9-1,4.2-3.2,6.7-6.6,2.5-3.4,3.9-9,4.4-16.7-2.5-6.5-7-10.6-13.6-12.5-7.4,13.4-13.7,23.7-19,31.1,1.1,2.8,1.4,4.5,1.1,5-.4.5-.9.9-1.4,1.1s-1.7-.6-3.5-2.4c-2.3,1.4-4.5,2.7-6.8,4-2.4,1.2-4.8,1.4-7.4.4-5.2-1.5-7.2-6.3-5.8-14.2,1.3-7.9,6.4-15.3,15.2-22.2.1-5.8.9-11.8,2.2-17.8-7.7,3.5-15.2,6.5-22.4,9-1.3.1-2-.3-2.1-1.2ZM288.44,169.63c-5.8,6.7-9.1,11.7-9.7,14.8-.5,3.2-.6,5.7-.3,7.6.4,2,1.6,3.4,3.6,4,1.8.7,5.3-.7,10.4-4.3-2.5-7.3-3.9-14.6-4-22.1ZM295.84,187.93c7.2-8.6,12.3-17.9,15.6-27.8-7.3-1.1-13.4,1.2-18.5,6.6-.7,6.9.3,13.9,2.9,21.2Z"/><path class="cls-1" d="M373.64,133.53c1.1,0,1.9.2,2.4.7.5.6,0,3.5-1.3,8.7-1.3,5.3-1,13.4,1.1,24.2,1.7,0,2.9.1,3.5.2.5.2.7.7.6,1.4-.2.8-.9,1.6-2,2.3-1.1.6-2.7.4-4.9-.6-2.5-6.9-3.6-13.3-3.1-19.5.4-6.1,1-11.5,1.7-16.2.3-.8,1-1.2,2-1.2ZM407.94,141.93c-1.5-7.1-1.9-11.1-1.2-12,.7-.8,1.5-.9,2.2-.4.7.7,1.4,2,2.2,3.9.7,1.8,1.3,8.5,1.8,20,.4,11.4-1.4,21.5-5.3,30.1-4,8.5-6.4,13.2-7.4,14-1,.9-2.2,1.7-3.6,2.4-1.5.7-2.3.7-2.4-.1-.1-.9,1.1-3.1,3.6-6.7,2.5-3.5,5.5-10,8.9-19.5,2.3-14.1,2.7-24.6,1.2-31.7Z"/><path class="cls-1" d="M446.73,178.83c-.8-.7-.3-2.5,1.8-5.4,2-2.9,5.6-6.1,10.5-9.5-.2-7.7-.3-14.6-.3-20.8.3-1.8,1.2-2.3,2.7-1.6,1.4,1,2.1,3.4,1.9,6.8-.2,3.4-.1,7.5.3,12.2,7.6-5.9,14.1-9.7,19.4-11.4,5.1-1.8,8.5-2.3,9.7-1.4,1.3.9,2.3,2.4,3.1,4.4.7,2.1.5,5.9-.5,11.4-1.2,5.6-3.3,12.8-6.3,21.5-.5,1.7-1.5,2.5-3.2,2.4-1.8-.1-2.7-.7-2.9-1.6-.2-.9-.1-1.5.3-1.7.3-.2.8-.3,1.5-.4.6-.1,1.7-2.8,3.2-8.2,1.6-5.3,2.8-13,3.5-23.1-1.9-1.1-5.2-.7-10.1,1.3-5,2-10.6,5.7-17.2,11.2.4,9.1,2.2,17.7,5.2,26,.7,1.4.4,2.3-.9,2.7-1.3.4-2.3,0-3.1-1.2-2.7-7.5-4.4-15.6-5.5-24.3-4,3.2-7,6.1-9.1,8.5-1.7,2.1-3.1,2.8-4,2.2ZM514.94,184.13c-1.7-.3-3.2-4.2-4.9-11.7-1.6-7.5-3.1-15.3-4.6-23.3-1.4-7.9-2-12.2-1.8-12.7.2-.5.7-.7,1.6-.6.9.2,1.5.6,1.9,1.1.3.5,1.3,4.6,2.7,12.2,1.5,7.6,3.8,18.6,7.2,33.1.1,1.6-.5,2.2-2.1,1.9ZM512.64,131.22c.7,1.8,1.4,3.2,2,4.4.5,1.2,1,2.2,1.5,3.2.4,1,.2,1.7-.6,2-.8.4-1.6.5-2.4.3-.7-.2-1.7-1.7-3-4.3-1.3-2.7-1.9-5.2-1.9-7.8-.1-2.6,0-4.1.2-4.7.1-.5,1-.7,2.5-.6,1.5.1,1.9,1.3,1.3,3.3-.5,1.1-.4,2.5.4,4.2ZM525.84,136.23c.4,0,.6.5.6,1.5,0,.9-.9,1.4-2.5,1.3-1.8,0-3.1-2.1-4-6.5s-1.1-8-.6-11c.5-2.9,1.6-4.3,3-4,1.5.3,1.9,1.1,1.4,2.4-.9,5.1-.3,10.5,1.5,16.3h.6Z"/><path class="cls-1" d="M553.64,189.63c-.7-2.4-.9-4.1-.6-5,.2-.9,1.1-3,2.6-6.4,1.6-3.3,4.3-7.5,8.3-12.7-3.6-9-5.5-16-5.8-21.2-.3-5.2-.7-8.3-1.1-9.5-.4-1.2-.3-2.3.4-3.6.7-1.3,1.5-1.1,2.8.4,1.2,1.6,2.1,5.2,2.6,10.7.5,5.7,1.7,12.4,3.4,20.3,6.8-8.2,13-13.8,18.8-17,5.7-3.3,8.6-4.2,8.8-3.2.2,1.2-3.9,5-12.2,11.4-8.4,6.4-14.8,13.1-19,20.2s-5.7,11.8-4.4,14.2c1.2,2.5,3.1,4.1,5.5,5.2,2.4,1.1,7,1.1,13.8.2,6.7-.9,13.3-3.3,19.5-7.1,6.3-3.8,9.7-5.7,10.3-5.7.5,0,1.1.8,1.8,2.5.7,1.6-4.8,4.8-16.4,9.7-11.6,5-22.1,6.4-31.8,4.3-4.2-2.7-6.7-5.3-7.3-7.7Z"/><path class="cls-1" d="M639.94,172.63c-.9-.5-1.2-1.6-.9-3.4.3-1.9,3.4-5.4,9.3-10.6,6-5.1,12.1-7.8,18.6-8.1,6.3-.3,10.2.9,11.6,3.5,3.6,6.5,3.7,14.2.3,23.3s-7,15.9-10.6,20.4c-3.6,4.6-6,6.7-7.3,6.4-1.3-.4-1.9-1.1-1.9-2s.4-1.7,1.3-2.2,1.6-.9,2-1.1c.3-.1,2.2-2.8,5.8-7.8,3.6-5.1,6.4-11.7,8.2-20,1.9-8.2,1-13.5-2.7-16-13.8-1-24.2,4.4-31.4,16.3-.7,1.4-1.5,1.8-2.3,1.3ZM656.04,131.82c-2.4-2.2-3.8-3.5-4.1-4.1-.4-.5,0-1.1,1.1-1.7,1.1-.5,3,.3,5.8,2.5,2.6,2.2,4.7,4.9,6.2,7.9,1.5,3,2,5.2,1.6,6.2-.4,1.2-1,1.2-1.7-.1-3.6-4.9-6.5-8.5-8.9-10.7Z"/></svg>