<?xml version="1.0" encoding="UTF-8"?><svg id="_レイヤー_1" xmlns="http://www.w3.org/2000/svg" viewBox="0 0 694.31 215.72"><defs><style>.cls-1{fill:#000;}.cls-1,.cls-2{stroke-width:0px;}.cls-3{opacity:.75;}.cls-2{fill:#fff;}</style></defs><g class="cls-3"><path class="cls-2" d="M72.58,82.33c.09-.11.17-.21.25-.32-.03,1.3-.07,2.64-.11,4.01-.54.2-1.06.46-1.54.78-1.62,1.07-2.72,2.7-3.08,4.52-.33,1.45-.71,5.17,3.02,8.44,1.54,1.32,3.52,2.19,6.17,2.72.59.12,1.19.19,1.8.19,2.19,0,6.29-.86,9.18-6.64,1.59-3.18,2.21-7.79,2.09-15.42-.08-4.92-.16-11.03-.25-18.22,5.57-1.69,6.81-1.92,7.03-1.95,3.96-.61,6.97-3.35,7.85-7.17l.17-.72v-.74c0-2.86-1.13-5.3-3.18-6.85-1.01-.77-2.99-1.85-5.85-1.58,1.78-.38,3.06-.89,4.19-1.79l.56-.45.45-.56c1.01-1.26,1.78-2.85,2.29-4.75l.12-.55c.88-4.86-1.69-7.52-2.83-8.43-2.97-2.38-6.56-1.83-12.62.14-2.44.86-6.76,2.22-14.17,4.48-.03-.71-.05-1.47-.09-2.27l-.02-.32c-.03-.31-.06-.62-.09-.91,2.93-1.52,4.82-2.17,5.96-2.45,5.95-1.54,8.97-4.5,8.97-8.79,0-3.29-2.11-7.4-8.04-8.14-2.12-.28-4.39-.05-6.78.68-.25-1.24-.68-2.47-1.26-3.64l-.28-.5c-1.64-2.66-3.74-4.16-6.24-4.45-1.91-.22-3.87.36-5.37,1.59-2.11,1.65-3.26,4.23-3.5,7.9-.19,1.64-.4,4.27-.6,7.51-3.93,1.98-7.46,3.53-10.2,4.47-1.06.33-2.03.63-2.92.93-.09-1.53-.61-3.34-2.08-5.22-2.35-3.02-5.86-4.05-9.29-2.79-.16-1.74-.25-3.48-.25-5.22v-.74l-.17-.72c-.44-1.89-1.29-4.59-3.72-6.31-1.41-1.06-2.98-1.72-4.7-1.97-2.22-.31-4.31.26-5.88,1.62-1.57,1.36-2.44,3.36-2.44,5.62v5.4c0,2.85.44,6.26,1.34,10.38-2.97,1.47-5.36,2.66-7.12,3.55-4.22,1.89-6.58,3.85-7.62,6.25-1.33,2.78-1.28,5.61.13,7.97,1.32,2.19,3.35,3.63,5.72,4.05.32.06.65.09.98.1-.15.91-.14,1.85.05,2.78.32,1.54,1.1,2.92,2.27,4.04-1.35,2.08-1.51,4.47-1.08,6.35l.02.1c.44,1.76,1.47,3.26,2.94,4.3-.04.04-.07.08-.11.12-1.8,1.91-3.19,3.54-4.12,5.21-1.42,2.37-1.94,6.11.63,9.77.1,5.09.54,8.85,1.34,11.45,1.68,5.76,6.63,8.59,12.6,7.21,2.5-.58,5.6-1.8,9.96-3.95h.07c4.95.68,7.73-3.68,8.62-5.07,2.06-3.09,3.13-6.67,3.13-10.4.92-.19,1.66-.41,2.1-.54,1.63-.44,3.27-.94,5.1-1.53.31.58.59,1.14.85,1.68,1.76,3.83,4.59,6.68,7.94,8.01,5.48,2.28,9.64.36,11.7-2.21ZM27.74,76.38c-.57.27-1.16.54-1.75.82-.04-1.09-.04-2.19-.01-3.27.56-.44,1.15-.85,1.78-1.22.1,1.08.09,2.3-.02,3.67ZM72.53,50.54c-3.84,1.17-7.56,2.29-11.13,3.36.12-.05.23-.09.35-.14,3.28-1.31,6.88-2.62,10.72-3.91.02.23.04.47.05.69ZM38.97,37.84c3.11,2.32,7.36,1.64,11.52.72l.17-.04c1.84-.47,3.84-1.18,6.07-2.14.02.32.04.64.05.96-3.05,1.22-5.97,2.36-8.7,3.39-2.59.95-3.51,1.23-3.83,1.31-2.25.15-4.69,1.29-6.17,3.91-.29-.45-.63-.88-1.02-1.29.04-.05.09-.1.13-.15l.24-.31c1.4-1.96,1.93-4.24,1.55-6.36ZM44.35,59.58c-.77.27-1.54.55-2.32.84-.29-.58-.6-1.12-.95-1.62.86.42,1.95.74,3.26.78ZM35.8,32.76c-.12-.09-.22-.17-.32-.24.09-.04.18-.08.27-.11.02.12.02.23.05.35ZM94.29,43.74c-1.03.27-2.51.71-4.73,1.37,0-.09,0-.18,0-.27,0-.03,0-.07,0-.1,1.02-.27,2.04-.55,3.09-.82.68-.08,1.3-.16,1.88-.25-.08.02-.15.04-.23.06ZM68.32,69.86c-.07-.13-.17-.31-.29-.56l-.04-.09c1.51-.46,3.18-.96,4.98-1.47.02,1.62.02,3.32,0,5.11-.9-1.18-2.35-2.31-4.66-2.98Z"/><path class="cls-2" d="M170.2,85.95c3.82-5.26,6.45-11.4,7.8-18.27,1.15-5.35.55-10.81-1.74-15.94,1.96-.88,3.19-1.37,3.74-1.55,1.62-.54,3.9-1.53,5.54-3.17,2.49-2.49,2.97-6.22,1.28-9.67-1.02-2.2-2.64-3.75-4.67-4.47-1.94-.69-4.08-.54-6.05.45l-.13.07c-2.5,1.34-7.92,3.77-14.31,6.59-1.2-.29-2.55-.52-4.07-.69,3.33-5.41,5.41-9.96,6.2-13.56,1.23-5.52,1.89-9.42,2.16-11.18,1.03-5.56-1.64-10.52-6.9-12.89-4.1-2.01-9.27-2.06-15.85-.14-5.14,1.61-10.28,4.16-15.69,7.81-6.85,4.62-9.52,7.66-9.85,11.25-.45,5.36,3.08,8.58,6.77,8.99,2.46.3,4.5.09,14.91-7.85,2.72-2.04,5.42-3.37,8.18-4.04-.83,5.06-2.83,10.02-6.08,15.08-4.81,7.64-7.92,12.2-8.43,12.87-2.02,2.59-2.34,5.8-1.07,8.5-.84.48-1.21.81-1.6,1.2-1.84,1.85-2.4,4.33-2.56,5.68-.53,4.76,2.37,7.78,5.48,8.67,2.04.58,4.3.43,6.74-.46l.15-.06c1.12-.45,8.31-3.61,20.96-9.3.07.35.13.74.19,1.17.5,3.54-.78,7.84-3.79,12.78-2.06,3.33-4.19,6.29-6.36,8.82-1.46-1.16-3.22-1.79-5.11-1.79-3.48,0-7.44,2.43-7.88,7.76-.17,2.03-.08,3.89.29,5.84l.24,1.3.74,1.1c3.37,5.05,7.11,6.11,9.65,6.11,1.2,0,2.41-.23,3.64-.71,2.51-1.03,5.21-2.87,7.98-5.4,2.8-2.37,5.82-5.83,9.5-10.89Z"/><path class="cls-2" d="M279.55,80.83l.17-.37c1.96-4.63,2.23-10.62.81-18.32l-.23-.9c-2.25-6.65-6.18-11.93-11.7-15.71.27-4.68.76-8.66,1.49-12.13,1.57-7.24,1.62-10.21.19-12.71l-.59-.88c-.51-.72-1.04-1.47-1.76-2.19-2.28-2.28-5.67-2.84-8.86-1.48l-.67.33c-.26.15-.51.31-.75.49-.37-.73-.87-1.4-1.48-1.99-1.88-1.8-4.56-2.6-8.21-2.45-1.4.06-3,.28-4.87.68-.57-3.23-2.8-5.75-5.92-6.64l-.18-.05c-2.3-.57-4.72-.24-7.18.99l-.69.4c-1.2.8-5.01,3.92-3.57,10.38.03.16.06.31.09.47-6.58,2.39-11.51,4.23-14.03,5.22l-.15.06c-7.92,3.39-8.24,8.37-7.75,10.97.39,2.37,1.79,4.37,3.85,5.49,3.56,1.94,7.45.62,10.79-.95,1.63-.67,4.13-1.65,7.57-2.81v15.1c-4.93,2.9-8.97,6.9-12.04,11.9-6.64,9.43-5.64,17.03-3.62,21.78,1.93,4.41,4.67,7.2,8.16,8.31,1.05.33,2.13.5,3.23.5,2.2,0,4.44-.68,6.62-1.98,7.87-4.46,12.53-10.72,13.88-18.67.76-5.03,1.22-8.77,1.46-11.85,2.42-1.18,4.86-1.92,7.39-2.23.38,2.64,1.44,5.3,4.37,6.76l.22.1c2.41,1.07,4.73,1.25,6.96.5l.29-.11c.09-.04.18-.07.27-.11.49,1.8.6,4.11.34,6.85-.14.15-.28.3-.41.43l-.61.7c-1.73,2.31-2.34,5.03-1.77,7.87.64,3.2,3.28,6.63,8.77,6.63,5.92,0,9.08-6.32,10.11-8.39ZM243.55,31.15c6.78-1.69,8.5-2.36,9.45-2.85-.61,3.46-1.12,7.97-1.57,14.05-2.7.3-5.35.81-7.94,1.51-.03-4.05,0-8.25.05-12.71Z"/><path class="cls-2" d="M377.06,94.25l.13-.17c1.89-2.46,2.85-4.83,2.85-7.06,0-2.36-1.03-4.49-2.83-5.84-.37-.28-.87-.59-1.48-.86-.06-1.73-.11-3.44-.16-5.13,1.83-.56,3.84-1.84,7.08-3.96,4.34-2.89,7.43-6.54,9.48-11.17,2.03-4.78,2.71-7.87,2.36-10.7-.37-2.8-1.41-5.18-3.09-7.06l-.26-.27c-1.78-1.78-4.19-2.86-8.01-4.23-2.4-.85-5.14-1.08-8.32-.69-.11-1.15-.33-2.42-.77-3.63,1.67-.68,2.97-1.11,3.88-1.29.07-.01.13-.03.2-.04,2.55,1.22,5.54.92,8.09-.9l.3-.24c1.24-1.04,2.23-2.24,2.85-3.49.64-1.29.88-2.53,1.05-4,.23-2.06-.45-4.12-1.86-5.64-2.48-2.68-6.06-2.78-9.22-2.67-2.11.07-4.48.44-7.48,1.16-.12-.62-.22-1.16-.3-1.63-.72-3.97-2.02-6.56-4.02-8.11-2.59-2.13-5.15-2-6.45-1.74-2.18.44-4.02,1.86-5.08,3.99l-.18.4c-.51,1.27-.89,3.3-1.14,6.05-.15,1.75-.03,3.68.38,5.85-11.94,3.95-14.73,4.67-15.2,4.78-1.09.14-2.08.45-2.97.93-1.88-.42-3.5-.06-4.4.24-.49.16-.98.37-1.48.61-.88-.3-1.77-.45-2.66-.45s-3.02.18-4.97,1.87c.07-.22.14-.42.2-.61,1.38-3.91,2.27-7.56,2.72-11.19l.02-.15c.24-2.52.99-10.19-5.44-11.97-2.99-.95-5.17-.26-6.47.5-1.64.95-2.83,2.56-3.26,4.36l-.15.56c-.38,1.39-1.27,4.63-2.53,9.56-1.54,5.81-3.29,14.03-5.64,26.58-.68.66-1.32,1.28-1.94,1.88-1.25,1.21-2.33,2.25-3.24,3.21-1.88,1.79-3.4,3.66-4.52,5.56-2.6,4-1.99,8.75,1.46,11.53,1.72,1.45,3.82,2.13,5.93,1.93.6-.06,1.31-.2,2.08-.49.81,1.72,1.94,3.42,3.38,5.06,2.37,2.86,6.03,4.86,11.14,6.09-.04,3.17,1.17,5.22,2.25,6.42,1.58,1.75,3.81,2.71,6.28,2.71,2.77,0,5.08-.93,6.69-2.69,1.41-1.54,2.11-3.56,2.01-5.75,2.29-.37,4.22-.99,5.86-1.87,2.26-1.1,3.88-2.52,4.86-4.24,2.75,1.23,5.36,1.85,7.79,1.85,2.2,0,3.93-.49,5.28-1.19.19,6.63.42,10.19.72,11.83,1.43,7.99,6.25,9.47,8.99,9.65.25.02.49.02.74.02,3.32,0,6.25-1.4,8.49-4.08ZM375.01,54.64s.07-.01.1-.02c-.03.03-.06.06-.1.1,0-.03,0-.05,0-.08ZM357.8,62c-.11-.03-.22-.07-.34-.1.11-.07.22-.15.33-.22,0,.11,0,.22,0,.32ZM336.77,47.29c.11-.99.23-1.97.34-2.95,1.5-.23,2.87-.84,4.07-1.83.19-.01.38-.03.57-.06l.69-.14c4.75-1.21,8.64-2.33,11.83-3.39,1.16-.35,2.42-.73,3.76-1.12-.04,1.01-.01,1.95,0,2.72.01.5.04,1.45.03,2.45-3.85,1.75-7.47,3.94-10.76,6.54-.64.5-1.23.98-1.78,1.44-2.05-3.6-5.41-3.94-6.59-3.94-.74,0-1.46.09-2.16.27ZM319.36,55.28c-.19,3.06-.4,6.03-.65,8.96-.11-.07-.22-.14-.32-.21-.65-2.65-.66-5.3-.03-8.04.33-.24.67-.47,1-.71Z"/><path class="cls-2" d="M413.11,53.17c2.53.76,5.16.32,7.85-1.32,9.96-6.18,20.07-11.86,30.07-16.91,5.09,3.91,8.37,9.07,9.98,15.71l-.33.31c-1.06.98-2.16,2-3.08,2.93l-.21.22c-2.9,3.26-2.37,6.28-1.81,7.79.92,2.46,3.13,4.14,5.94,4.49.35.04.71.06,1.08.06,2.03,0,4.18-.62,6.41-1.83,2.14-1.02,4-2.11,5.68-3.34,5.24-3.85,3.82-11.44,1.51-19.03-1.73-6.06-5.01-11.49-10-16.51,1.24-.95,2.16-1.94,2.86-3.06l.3-.54c1.64-3.27,1.09-8.04-3.94-10.78-1.71-.97-6.3-2.73-12.03,1.79l-.11.09c-.42.35-.84.69-1.28,1.04-12-8.22-13.08-8.54-15.36-8.54-2.83,0-6.5,1.67-7.54,6.39-.19.83-.75,3.37.35,5.84.62,1.54,1.26,2.34,6.05,5.9-7.61,3.89-13.17,6.81-17.3,9.09-8.29,4.57-10.09,7.56-10.8,10.1-.54,1.92-.34,3.93.53,5.6,1.1,2.25,2.94,3.86,5.19,4.53ZM463.25,51.98l-1.03-.97.11-.02.92.99h0ZM461.55,50.15l.66.71-.14.02-.63-.6s.08-.09.12-.13Z"/><path class="cls-2" d="M456.57,93.04c3.37-4.12,2.41-8.45.56-10.92l-.07-.09c-1.74-2.23-4.36-3.53-7.59-3.77-7.77-2.51-12.01-4.76-14.24-6.22-5.52-3.52-8.15-4.54-10.82-4.16l-.87.19c-3.52,1.01-5.71,4.02-5.71,7.85,0,4.29,3.36,7,8.53,10.66,4.59,3.14,9.45,5.61,14.39,7.32,2.96,1.11,6.09,2.13,8.99,2.13s5.19-1.01,6.82-3Z"/><path class="cls-2" d="M555.68,90.34l1.5.15c.79.08,1.59.12,2.37.12,5.76,0,11.14-2.2,15.55-6.36,3.55-3.35,6.33-5.93,8.2-7.62,4.49-3.84,5.21-7.56,5.02-10.01l-.07-.57c-.82-4.89-4.37-6.93-7.2-7.2-5.27-.74-9.67,1.7-11.51,6.42-.09.25-.69,1.65-3.31,4.07-1.26,1.16-2.91,2.26-4.92,3.29-1.03-1.37-1.81-2.83-2.34-4.37l-.08-.23c-2.5-6.33-7.77-9.81-14.85-9.81h-1.21l-1.12.43c-6.59,2.53-12.26,5.44-16.89,8.64l-.14.1s-.06.05-.1.07c-1.57-13.11.26-26.06,5.45-38.55l.29-.69.12-.74c.51-3.05.54-5.76.09-8.3l-.23-.93c-2.09-6.26-6.93-6.74-8.37-6.74-3.88,0-7.08,2.39-8.38,6.3l-.08.25c-4.54,16.2-6.84,33.07-6.84,50.16v.33l.09.74c.44,2.63.88,5.68,1.18,7.75.69,4.85,2.58,8.3,5.65,10.27l.14.08c3.42,2.06,7.37,2.04,11.75-.06,2.75-1.37,6.29-3.81,10.22-7.01,2.16-1.71,4.71-3.08,7.57-4.09.65.86,1.26,1.86,1.84,2.99,1.98,4.21,5.11,7.68,9.32,10.31l1.28.8Z"/><path class="cls-2" d="M51.73,171.17c-2.36-6.4-5.02-10.09-8.56-11.94-3.64-2-8.62-1.95-15.63.15-2.76.8-5.65,2.23-8.75,4.34,2.5-11.84,7.32-22.56,14.39-31.94,2.39-3.25,4.19-5.48,5.36-6.65l.45-.5c5.26-6.47,1.83-10.82.65-11.99-4.81-4.81-10.91-.31-14.95,2.66-4.85,3.57-9.63,11.27-15.52,24.97C3.73,152.89.74,163.83.26,172.76v.25c-.52,10.55-.17,14.37.52,16.7,1.1,5.82,8.09,7.82,15.44,9.1,2,.4,4.02.6,5.98.6,6.66,0,13.02-2.21,19.42-6.72,5.23-3.59,13.51-11.13,10.19-21.32l-.07-.2ZM35,175.26c-.3.53-1.33,1.98-4.58,4.63-3.93,3.21-6.57,3.4-8.34,3.06,3.3-3.58,7.2-6.07,11.86-7.58.41-.14.74-.24,1.02-.3.01.06.03.12.04.19Z"/><path class="cls-2" d="M117.87,165.68c.09-3.13.16-5.71.22-7.76.46-.15.9-.29,1.32-.43l.37-.12c1.94-.63,3.36-1.09,4.25-1.34,1.49-.33,3.07-.64,4.52-.71,4.55-.22,6.64-2.41,7.59-4.22,1.27-2.4,1.1-5.24-.46-7.78l-.34-.49c-1.01-1.35-2.18-2.4-3.45-3.15.43-.3.85-.61,1.25-.92,2.41-1.88,4.06-3.54,5.02-5.09l.3-.54c1.62-3.25.85-6.36.59-7.38-.92-3.67-2.89-5.8-5.85-6.31-1.46-.25-2.96,0-4.26.7-.97.29-3.58.98-10.35,2.58-4.56,1.13-10.19,2.41-16.71,3.9l-.16.04c-1.43.33-2.91.67-4.44,1.01.16-.47.34-.87.54-1.2,1.73-2.88,1.5-5.31,1.01-6.84-.66-2.03-2.12-3.62-4.15-4.49-.71-.3-1.58-.68-2.54-.97-3.51-1.26-7.27.05-9.22,3.3l-.19.35c-.38.76-.82,1.87-2.03,4.96l-.33.84c-1.2,3.17-2.41,8.35-3.92,16.8-1.5,4.21-1.69,7.75-.59,10.89.99,2.63,2.72,4.61,4.9,5.69-.7,2.02-1,4.09-.91,6.2.02,2.29.41,6.99.8,11.17-13.23,3.59-14.97,4.6-16.05,8.37-.62,2.16-.41,4.43.63,6.78l.1.21c2.91,5.83,9.81,3.99,12.32,3.32,9.2-2.07,16.73-3.79,22.05-5.04-.17,4.21-.33,8.11-.45,11.59-.34,6.72,0,10.88,2.75,13.55,1.37,1.34,3.17,2.07,5.07,2.07.19,0,.38,0,.57-.02,1.78-.14,4.05-.48,5.89-1.94,2.9-2.17,2.96-5.18,3.11-14.03.08-4.5.28-9.83.61-15.86,18.68-4.23,24.19-5.3,25.75-5.53,3.87.34,7.19-2.03,8.16-5.89l.03-.13c.68-3.04-.29-6.15-2.65-8.51-2.88-2.88-4.52-3.36-30.67,2.35ZM100.34,163.96c-.05,1.97-.09,3.98-.13,6.01-1.02.21-1.99.42-2.92.62-.03-1.63-.02-3.48.02-5.57.85-.31,1.85-.65,3.03-1.06ZM93.22,146.33c2.55-.82,4.84-1.46,6.92-1.94.28-.06.56-.12.83-.17-.02.44-.04.87-.06,1.29-2.33.72-4.58,1.39-6.84,2.03-.28.07-.56.15-.83.23,0-.14,0-.27-.01-.41h0c-.01-.34-.02-.68,0-1.02Z"/><path class="cls-2" d="M249.86,121.49l-.39-.56c-4.02-5.17-9.42-7.53-15.64-6.84-5.18-.28-9.72.84-13.92,3.47-1.01.65-2.11,1.35-3.34,2.1l-.33-.25c-4.29-2.86-8.28-1.4-10.4.71-.5.5-.97,1.04-1.44,2-3.5-3.08-8.1-4.39-14.01-3.99l-1.01.15c-3.88.89-7.66,2.31-11.26,4.24-1.43-1.4-3.37-2.2-5.49-2.2-3.06,0-5.55,1.21-7.01,3.4l-.41.7c-.52,1.04-.66,1.33-2.49,11.32-1.08,6.38-1.41,15.77-.99,28.75v.18c.97,14.24,1.99,25.98,2.94,33.93.86,7.23,2.03,17.14,9.95,17.14,5.08,0,7.41-2.74,8.34-4.37,1.57-2.75,1.44-6.06-.31-8.74-.15-.5-.45-1.74-.78-4.24-.43-3.23-1.28-11.63-2.44-25.61.58-.34,1.15-.69,1.73-1.04-.09,1.83-.1,3.98-.04,6.56.18,7.46,1.76,14.92,4.71,22.25l-3.21,1.72,3.58-.81c.54,1.29,1.12,2.58,1.75,3.86.38,1.22,1.09,2.33,2.05,3.2,2.6,2.37,6.24,2.38,9.39,2.09,3.26-.21,7.05-1.21,11.86-3.12.59.09,1.19.11,1.8.05,3.84-.35,6.22-3.34,7.74-5.91,2.39-1,6.69-3.18,7.18-7.61.31-2.49-.23-4.74-1.55-6.51l-.43-.57c1.19-5.31,1.66-9.6,1.41-13.08-.22-3.17-.73-6.82-2.44-9.67,2.96-1.11,6.73-2.79,11.64-5.18-.42,34.48-1.03,39.72-1.21,40.48-.65,2.7-1.15,6.17.83,9.12,1.21,1.81,3.1,3,5.39,3.35l.37.04c3.13.26,5.98-.73,8.03-2.78,1.99-1.99,2.98-4.92,3.29-9.78.14-2.16.49-8.35.71-19.22.24-7.54.45-21.09.1-42.81,0-6-1.44-11.36-4.28-15.93ZM210.09,174.79c-3.9,1.62-7.74,3.48-11.64,5.62-.02-.4-.05-.8-.06-1.2,3.34-3.21,7.11-4.64,11.7-4.42ZM226.22,132.73c.42-.27.85-.53,1.28-.79,1.14-.65,2.32-1.06,3.59-1.22-.79.3-1.63.63-2.51.99l-.16.07c-.73.32-1.46.64-2.19.96Z"/><path class="cls-2" d="M345.75,165.89l-.5-.85c-5.49-9.36-13.47-14.79-23.68-16.15-4.85-.7-9.56-.48-14.07.65.08-.48.16-.97.25-1.47,14.03-6.62,16.18-7.79,17.08-8.36,2.09-1.33,3.56-3.04,4.63-5.39,1.55-3.42.62-5.99-.08-7.22-1.16-2.03-3.22-3.36-5.63-3.62-2.37-.29-4.9.43-8.67,2.46-.68.34-1.53.76-2.54,1.25-.08-1.25-.45-2.25-1.11-3.26-1.85-2.93-5.42-4.24-8.87-3.26-.82.23-1.52.47-1.88.59l-.84.35c-2.14,1.07-3.55,3-5.01,6.85-.88,2.15-1.65,4.92-2.3,8.26-5.99,2.69-10.75,4.7-14.13,5.97-1.91.67-3.45,1.2-4.59,1.59-1.24.43-2.06.71-2.39.84-2.58.93-5.42,3.73-4.93,8.62.41,3.66,3.42,7.39,9.06,6.96l.84-.06.79-.28c3.93-1.36,7.95-2.88,11.99-4.51-.14,1.36-.24,2.69-.31,4-8.67,7.42-13.79,15.58-15.21,24.24-2.78,15.7,6.09,20.26,10.13,21.5,4.17,1.53,8.33,1.27,12.44-.78l.24-.13c1.02-.58,2.04-1.16,3.09-1.78,2.19,1.2,4.34,1.39,6.43.55,1.54-.62,2.95-1.68,4.06-3.07l.5-.72c1.42-2.37,1.17-4.96.53-7.3,4.31-6.29,9.1-14.09,14.57-23.78,1.8,1.27,3.18,2.98,4.23,5.22-.61,7.12-1.98,10.33-3.04,11.77-2.72,3.7-4.31,4.6-4.48,4.69-5.36,2.81-6.48,6.48-6.48,9.06,0,3.22,1.24,5.88,3.47,7.45,1.26.93,2.73,1.4,4.37,1.4,2.72,0,5.16-1.32,6.37-1.98,2.86-1.43,5.77-4.22,11.51-11.03,5.7-6.89,7.19-16.42,4.42-28.32l-.22-.96ZM307.49,167.87c-.56,1.11-1.15,2.22-1.76,3.31-.01-.67,0-1.34.02-2.01.57-.49,1.15-.92,1.74-1.3Z"/><path class="cls-2" d="M388.25,160.79l-.36-.14c-1.4-9.11-.98-14.07-.35-16.64,1.97-7.88,2.52-11.4-.01-14.44l-.4-.44c-1.73-1.73-4.08-2.6-7-2.6-3.73,0-6.83,2.08-8.09,5.42l-.24.65-.1.68c-.78,5.25-1.37,10.86-1.75,16.64-.56,6.97.57,14.25,3.47,22.24l.93,2.57,2.49,1.13c1,.46,3.34,1.52,6.13,1.52,1.66,0,3.2-.38,4.64-1.17l.31-.18c3.21-2.04,4.39-4.5,4.82-6.21l.13-.66c.52-3.68-1.33-7.04-4.62-8.35Z"/><path class="cls-2" d="M423.7,130.56l-.07-.16c-1.21-2.88-2.29-4.67-3.6-5.98l-.23-.23-.58-.46c-3.43-2.46-8.01-1.87-10.92,1.47l-.19.23c-2.25,2.89-2.26,6.78-.03,17.33,1.3,6.16.91,15.82-1.16,28.73-3.81,10.57-6.4,15.3-7.92,17.42-3.48,5.01-5.07,7.96-4.71,11.21.29,2.33,1.61,4.3,3.61,5.41,1.08.6,2.28.9,3.55.9,2.03,0,3.72-.79,4.47-1.14l.12-.06c1.88-.94,3.56-2.06,4.92-3.28,1.8-1.53,3.37-4.08,9.09-16.25,4.33-9.55,6.31-20.67,5.88-33.07-.74-16.96-1.54-20.29-2.24-22.08Z"/><path class="cls-2" d="M536.57,120.98c.83-2.79.15-4.94-.58-6.26-1.16-2.1-3.22-3.54-5.79-4.05-2.19-.47-4.41-.04-6.27,1.22-1.72,1.16-2.99,2.94-3.81,5.3-.71-.24-1.47-.39-2.25-.45-7.04-.46-8.81,3.96-9.17,5.26-.31,1.03-.61,2.63-.46,6.61,0,.25,0,.49.02.74-2.69,1.06-3.83,3.35-4.15,4.17-.61,1.54-.81,2.59.3,9.55-.43-.41-.89-.79-1.37-1.12-3.23-2.34-7.9-2.19-15.54.51-3.37,1.09-7.1,2.87-11.15,5.33.3-7-2.34-10.41-4.63-12.05l-.3-.21-.73-.39c-2.59-1.21-5.26-1.22-7.53-.02-2.3,1.21-3.84,3.5-4.33,6.44l-.05.33-.03.74c0,5.38.07,11.13.22,17.54-4.22,3.19-7.24,6.14-9.18,8.95-5.72,7.89-2.97,12.22-.82,14.1l.68.52c1.47.98,6.64,3.59,12.3-3.09,1.03,4.84,2.28,9.28,3.79,13.48l.27.75.44.66c1.8,2.7,4.56,4.24,7.59,4.24.94,0,1.89-.15,2.83-.44,3.29-1.01,4.69-3.28,5.23-4.54.64-1.49,1.11-3.89-.23-6.86-2.45-6.85-3.93-13.59-4.51-20.58,5.05-3.99,9.29-6.65,12.96-8.11.17-.07.33-.13.49-.2-.65,5.85-1.52,10.62-2.61,14.24-.6,2.15-1.06,3.59-1.39,4.54-.13.07-.25.14-.37.21-2.24,1.32-4.29,4.3-3.32,8.7.33,1.47,1.93,6.29,8.86,6.68,4.65.28,8.39-2.39,9.75-6.85,3.04-8.82,5.22-16.28,6.49-22.22l.03-.16c.01-.07.02-.14.04-.21.62,3.13,1.27,6.29,1.93,9.39,1.99,8.77,3.99,15.56,10.07,16.66.64.12,1.27.18,1.87.18,2.56,0,4.28-1.05,5.27-1.92,1.86-1.65,2.79-4.11,2.61-6.95l-.02-.34-.14-.75c-2.78-11.86-5.18-22.91-7.14-32.79-.03-.16-.06-.32-.09-.48.7-.16,1.38-.4,2.05-.71,1-.43,1.87-1.04,2.59-1.8.92.35,1.89.54,2.9.56,3.51.19,5.68-1.12,6.88-2.25,1.54-1.45,2.39-3.42,2.39-5.54,0-2.98-1.07-4.84-2.2-5.96-.93-3.8-1.15-7.17-.67-10.28Z"/><path class="cls-2" d="M613.84,173.82c-2.11,0-3.09.26-13.7,6.66-5.44,3.33-11.14,5.42-16.96,6.2-8.23,1.09-10.17.36-10.24.34-1.03-.47-1.68-.98-2.13-1.7.14-.82.81-3.24,3.91-8.48,3.66-6.19,9.5-12.37,17.38-18.36,12.81-9.88,15.41-13.01,14.64-17.66l-.03-.16c-.44-2.22-1.88-4.03-3.95-4.96-3.36-1.52-6.86-.6-14.36,3.75-3.83,2.12-7.69,5.02-11.7,8.84-.41-2.59-.7-4.89-.89-7.04-.81-8.92-2.5-12.17-3.93-14.08l-.24-.29c-.84-.97-3.39-3.92-7.47-3.46-2.48.27-4.66,1.82-5.96,4.24-1.54,2.86-1.82,5.8-.86,8.68.02.06.44,1.64.8,7.88.3,5.27,1.92,11.76,4.93,19.81-3,4.12-5.29,7.78-6.81,10.92l-.08.17c-1.85,4.2-2.58,5.96-2.93,7.32-.63,2.2-.44,4.81.6,8.39,1.05,4.05,4.34,7.81,10.06,11.49l.99.64,1.15.25c3.38.73,6.86,1.1,10.36,1.1,8.05,0,16.35-1.89,25.35-5.77,16.58-7,18.71-9.65,19.89-12.63.73-1.83.72-3.87-.01-5.53-.66-1.61-2.69-6.52-7.81-6.52Z"/><path class="cls-2" d="M690.75,150.43c-2.01-3.72-5.81-5.96-11.31-6.69.79-2.82.1-6.34-2.09-10.73-1.92-3.84-4.55-7.19-7.85-9.99l-.15-.12c-1.98-1.56-7.25-5.69-12.59-3.27l-.34.17c-3.13,1.71-4.17,3.99-4.5,5.61-.36,1.81-.01,3.67,1,5.24.85,1.41,2.15,2.63,5.23,5.45,1.74,1.6,4,4.3,7.28,8.71-5.1,1.5-10,4.27-14.88,8.43-8.84,7.79-10.92,11.3-11.41,14.41-1.07,6.38,2.46,9.18,3.99,10.06,1.85,1.11,3.99,1.4,6.01.83,2.21-.62,4.03-2.19,5.28-4.54,5.45-8.91,12.65-13.1,22.55-13.1h.09c.39,1.38.41,4.05-.56,8.24-1.56,7.17-3.96,13.09-7.12,17.58l-1.61,2.24c-1.22,1.69-2.38,3.31-3.05,4.21l-1.02.57c-2.91,1.62-4.64,4.56-4.64,7.88,0,3.84,2.49,6.98,6.58,8.24l.35.09c.57.13,1.16.2,1.74.2,4.29,0,7.82-3.4,12.1-8.87,4.14-5.17,8.05-12.64,11.61-22.19,4.06-10.87,3.84-20.52-.67-28.67Z"/></g><path class="cls-1" d="M8.54,39.5c.1.02.2.03.31.03.88,0,2.17-.6,3.85-1.79,1.59-1.1,4.96-2.92,9.47-5.13h0c4.76-2.38,9.12-4.37,13.27-6.05,1.18-.39,2.06-1.07,2.5-1.96.31-.73.44-1.91-.73-3.41-.98-1.25-2.21-1.52-3.62-.73-.84.53-1.69,1.17-2.48,1.86-.63.49-1.56.89-2.98,1.39-1.07-4.54-1.61-9.21-1.61-13.9l-.03-.22c-.38-1.64-.89-2.63-1.6-3.09-.68-.53-1.43-.86-2.24-.97-.41-.06-1.02-.09-1.5.33-.54.47-.54,1.19-.54,1.46v5.4c0,3.26.75,7.75,2.22,13.36-4.94,2.43-8.69,4.3-11.13,5.52-2.86,1.27-4.55,2.49-5.01,3.61-.36.73-.75,1.81-.14,2.82.5.84,1.18,1.34,1.96,1.47Z"/><path class="cls-1" d="M66.46,75.05c-1.4-.31-2.48-1.4-3.42-3.47-.94-1.88-1.66-3.95-2.26-5.83,2.52-.87,7.67-2.52,17.52-5.23.32,7.59.23,17.58-.25,30.46-.22.39-.45.4-.85.28-1.32-.35-2.33-.31-2.99.13-.4.26-.66.66-.74,1.12-.2.76-.13,1.89,1.23,3.07.8.69,1.99,1.17,3.74,1.52.21.04.44.07.67.07,1.23,0,2.8-.74,4.23-3.6,1.14-2.27,1.61-6.36,1.51-12.86-.1-5.84-.2-13.36-.29-22.35,6.5-2.03,10.44-3.16,11.74-3.34,1.76-.27,2.94-1.32,3.32-2.96l.03-.22c0-1.14-.34-1.97-1.01-2.48-.71-.54-1.71-.64-2.95-.29-1.42.38-4.02,1.16-7.95,2.35l-3.28.99c-.17-2.52-.33-5.11-.41-7.73.11-.82-.06-1.52-.5-2.06-.53-.66-1.4-1.02-2.64-1.09-.06,0-.13,0-.19,0,3.48-1.02,7.12-2.02,10.92-3.01,3.65-.42,4.69-.76,5.24-1.2l.16-.16c.53-.66.97-1.61,1.3-2.85.26-1.43-.03-2.5-.86-3.16-.58-.46-1.67-.81-7.36,1.04-3.63,1.27-11.1,3.57-21.23,6.62-.04-.99-.08-2.23-.14-3.73-.06-1.58-.12-3.43-.21-5.64-.19-1.93-.36-3.38-.51-4.48,4.17-2.44,7.77-4.08,10.47-4.75,2.26-.59,4.85-1.51,4.85-3.47,0-.85-.43-2.34-3.27-2.69-1.69-.23-3.64.1-5.75.94-1.67.56-3.57,1.48-6.01,2.95.06-.67.1-1.28.15-1.85.09-1.18.17-2.2.27-3.01.22-1.65-.09-3.37-.94-5.06-.73-1.19-1.43-1.78-2.2-1.87-.46-.05-.92.09-1.29.42-.86.63-1.35,2.01-1.46,4.06-.23,1.99-.52,5.89-.77,10.5-5.33,2.83-10.11,4.99-13.83,6.26-5.3,1.63-6.44,2.25-6.8,3-.49.88-.31,1.82.58,2.86.67.67,2.01,1.13,7.26-.04,3.23-.83,7.43-2.67,12.51-5.49.13,3.34.39,7.82.7,13.27-4.42,1.79-8.63,3.45-12.51,4.92-1.56.57-4.47,1.64-5.26,1.64-1.4,0-2.24,1.1-2.49,3.28-.14,1.21.1,2.12.72,2.7.59.54,1.42.71,2.48.5,1.49-.32,6.29-2.12,14.26-5.35,5.5-2.2,11.75-4.36,18.69-6.45-.03.03-.06.05-.09.08-.58.55-.88,1.33-.88,2.34v.13c.53,3.96.75,7.03.72,9.83-6.87,2.1-13.39,4.06-19.4,5.85-.61-.94-1.59-1.58-2.89-1.88-2.75-.63-3.52,1.13-3.65,1.6-.35.88-.46,1.74-.33,2.69-2.69.85-5.61,1.87-8.52,2.96-2.95,1.2-4.34,2.19-4.64,3.3-.01.05-.02.1-.03.15-.19-1.29-.39-2.44-.58-3.45-.68-2.93-1.86-4.84-3.5-5.66-1.79-.96-4.64-.6-9.25,1.16-4.44,1.84-7.2,3.48-8.65,5.14-1.86,1.98-2.86,3.22-3.42,4.25-.55.87-1.08,2.65,1.34,4.98.02,5.5.4,9.52,1.14,11.94.86,2.94,2.96,4.11,6.09,3.39,2.4-.56,5.81-1.99,10.96-4.63.34.41.73.56,1.04.6,1.02.13,2.02-.67,3.31-2.69,1.66-2.49,2.39-5.36,2.17-8.51-.1-2.01-.29-3.84-.5-5.48.05.1.11.2.18.29,1.15,1.82,4.08,1.22,6.48.5,2.65-.71,5.5-1.66,8.52-2.67l.59-.2c1.06,1.74,2.25,3.77,3.33,6.02,1.19,2.59,2.93,4.39,5.02,5.21,2.33.98,4.28.76,5.36-.59.61-.75.81-1.47.57-2.16-.36-1.05-1.55-1.45-2.43-1.65ZM32.83,80.05c-3.71,1.77-7.54,3.59-11.53,5.27-.79-4.67-1.02-9.36-.7-13.96,2.63-2.64,5.83-4.53,9.76-5.77,1.22.66,2.03,2.11,2.59,4.63.53,2.67.49,5.89-.12,9.83Z"/><path class="cls-1" d="M15.17,56.96c.14.54.47.98.97,1.27.46.26,1.05.39,1.82.39,1.18,0,2.77-.31,4.87-.94l.11-.04c7.8-3.4,9.98-4.56,10.58-5.63.73-1.31.53-2.59-.57-3.69-.87-.87-2.39-1.52-4.73.33-1.22.97-2.53,1.83-4.1,2.68-1.64.77-3.38,1.25-5.51,1.73-3.58.85-3.69,2.81-3.44,3.9v.02Z"/><path class="cls-1" d="M27.84,43.35c4.09-1.12,4.83-2,5.11-2.35.94-1.31.7-2.3.34-2.9-.4-.67-.94-1.07-1.3-1.32-.63-.42-1.48-.32-5.31,1.1-2.85,1.1-5.35,2.23-7.43,3.36-2.17,1.23-3.78,2.41-4.7,3.46-.62.8-.64,1.51-.54,1.97.15.73.68,1.34,1.55,1.82.27.15.59.23,1.01.23,1.58,0,4.55-1.25,11.28-5.38Z"/><path class="cls-1" d="M168.48,49.29c4.61-2.2,8.21-3.8,9.77-4.32,1.5-.5,2.7-1.15,3.39-1.84.48-.48,1.13-1.55.2-3.44-.4-.87-.9-1.41-1.53-1.63-.54-.19-1.12-.14-1.75.18-2.78,1.49-8.61,4.09-16.54,7.59-2.76-1.07-7.55-1.52-14.57-1.37,6.19-8.52,9.97-15.38,10.96-19.93,1.2-5.4,1.84-9.19,2.11-10.93.59-3.09-.82-5.64-3.83-6.98-2.82-1.41-6.69-1.36-11.85.14-4.63,1.45-9.29,3.78-14.26,7.13-7.23,4.87-7.38,6.52-7.44,7.15-.21,2.46,1.16,2.98,1.97,3.08.52.06,1.73.22,10.92-6.79,5.58-4.18,11.29-6.01,17.42-5.58.1,8.24-2.31,16.08-7.37,23.95-5.36,8.51-8.31,12.74-8.74,13.32-1.01,1.3-.88,2.7.38,3.8,1.28,1,3.33.57,6.4-1.32,2.02-1.12,5.21-1.49,9.51-1.1-3.1,1.45-6.61,3.02-10.98,4.91-7.77,3.26-8.24,3.74-8.42,3.92-.48.48-.86,1.4-.99,2.4-.22,1.97.86,2.58,1.52,2.77.92.26,2,.16,3.35-.33,1.02-.41,9.18-3.99,24.28-10.8,2.38.38,3.84,2.73,4.36,7.01.68,4.83-.86,10.36-4.56,16.44-3.75,6.05-7.56,10.78-11.65,14.42-.79-1.21-1.4-2.21-1.83-2.98-.83-1.5-1.91-1.81-2.67-1.81-.51,0-2.19.2-2.4,2.72-.13,1.55-.06,2.89.21,4.37l.04.2.11.17c1.63,2.44,3.33,3.67,5.1,3.67.5,0,1.01-.1,1.52-.3,1.93-.79,4.11-2.3,6.46-4.46,2.44-2.05,5.27-5.31,8.67-9.98,3.35-4.61,5.67-10.06,6.87-16.18,1.29-5.97-.1-11.76-4.13-17.25Z"/><path class="cls-1" d="M274.66,78.31c1.51-3.56,1.67-8.66.46-15.17l-.04-.14c-2.19-6.46-6.27-11.33-12.13-14.48.21-6.41.79-11.74,1.76-16.29,1.61-7.39,1.06-8.35.79-8.81l-.3-.43c-.41-.58-.77-1.09-1.16-1.48-.4-.4-1.29-.96-2.8-.31l-.1.05c-.48.27-1.59.91-2.69,7.79-.74,4.08-1.33,9.98-1.86,18.49-6.56.12-12.77,1.5-18.5,4.12-.16-7.58-.15-15.73.02-24.84,9.77-2.33,11.87-3.12,12.53-3.48,1.45-.66,2.29-1.79,2.29-3.11,0-.48-.19-.92-.56-1.27-.73-.7-2.14-1.01-4.18-.93-2.32.09-5.55.81-10.1,2.24-.09-3.01-.19-4.96-.37-5.85-.14-1.28-.9-2.23-2.05-2.56-1-.25-2.11-.06-3.39.58l-.11.06c-.74.49-1.88,1.77-1.23,4.73.3,1.52.45,3.14.48,5.3-8.55,3.09-14.84,5.42-17.79,6.58-1.26.54-5.09,2.18-4.5,4.95.12.94.65,1.4,1.06,1.63,1.14.62,2.92.28,5.94-1.15,2.92-1.22,7.89-3.09,15.3-5.28v25.92c-5.46,2.52-9.81,6.43-12.92,11.57-4.27,5.97-5.34,11.55-3.2,16.58,1.28,2.93,2.85,4.65,4.78,5.27.5.16,1.02.24,1.55.24,1.22,0,2.52-.41,3.88-1.23,6.48-3.66,10.14-8.47,11.2-14.72.99-6.58,1.47-10.93,1.59-14.38,5.73-3.52,11.65-4.99,18.06-4.46-.29,5.72.54,6.96,1.45,7.41,1.15.51,2.08.62,2.98.31.86-.34,1.42-1.31,1.81-3.12l.02-.13c.05-.66.08-1.36.08-2.09.97.89,2.33,2.45,4.09,5.15,2.17,3.34,2.8,8.21,1.9,14.49-.29.3-.58.61-.87.92-.31.34-.62.66-.9.94l-.09.11c-.78,1.03-1.04,2.21-.78,3.5.29,1.46,1.43,2.2,3.38,2.2,1.69,0,3.39-1.75,5.22-5.41ZM231.4,62.43c-.27,7.18-2.06,12.85-5.47,17.27-2.67,2-3.79,1.86-4.14,1.7-.63-.27-.86-1.38-.94-2.09.74-6.79,4.2-12.33,10.56-16.89Z"/><path class="cls-1" d="M298.1,64.79c.74.64,1.43.72,1.88.68.69-.07,1.31-.45,1.89-1.2,2.23-3.42,3.92-5.51,5.17-6.8-.19,2.42-.33,4.6-.4,6.41-.11,2.59,1.08,5.32,3.52,8.08,2.18,2.67,6.34,4.32,13.05,5.14-.25,1.2-.44,2.52-.57,3.93-.14,1.45.12,2.56.79,3.3.37.41,1.06.9,2.2.9,1.21,0,2.07-.29,2.62-.9.31-.34.66-.94.57-1.9-.08-.82-.09-2.64.12-5.21,3.98-.07,6.77-.62,8.72-1.69,1.62-.77,2.55-1.64,2.84-2.64.19-.67.08-1.36-.33-2-.94-1.47-2.32-1.97-3.93-1.39-.59.25-1.18.47-1.77.69-.61.23-1.22.46-1.86.73-.73.33-1.73.52-3.06.59.33-10.74,1.18-21.17,2.5-31.02,1.83-1.32,2.91-1.6,3.24-1.56,1.17.15,2.09-.22,2.83-1.08.27-.27.9-1.05.59-2.26.59,1.49,1.72,1.52,2.25,1.44l.11-.02c4.65-1.19,8.44-2.28,11.54-3.31,3.38-1.02,7.03-2.11,11.28-3.21.57.77,1.55,1.79,2.81,1.63,1.35-.18,2.02-1.6,2.33-2.44,3.59-1.63,6.01-2.51,7.79-2.85,1.99-.4,2.86-.17,3-.07.84.85,2,.88,3.15.06.67-.55,1.17-1.15,1.46-1.72.28-.56.4-1.21.5-2.14.05-.48-.1-.94-.42-1.3-.7-.75-2.11-1-5-.91-2.67.09-6.28.85-11.61,2.45-.99-3.22-1.48-5.75-1.77-7.43-.46-2.54-1.17-4.17-2.03-4.78-.82-.7-1.5-.74-1.94-.66-.52.1-.95.45-1.24,1.05-.28.71-.58,2.47-.77,4.48-.2,2.26.32,5.27,1.53,8.96-18.39,6.16-20.74,6.61-21.03,6.63-.8.08-1.4.37-1.78.87-.42.54-.55,1.25-.41,2.18.04.24.08.46.14.66-.15-.37-.39-.77-.74-1.2-1.07-1.48-2.29-2-3.62-1.56-.85.28-1.8.83-3.05,1.76-2.52-2.05-4.31-1.71-5.28.95-.39,1.07-.52,1.97-.39,2.82-4.36,3.12-7.93,5.49-11.04,7.32,1.59-9.54,2.85-15.43,3.91-18.46,1.25-3.54,2.05-6.81,2.45-10.04.28-2.93.29-5.7-1.52-6.16-.66-.22-1.5-.41-2.16-.02-.36.21-.61.56-.69.94-.02.08-.08.3-.18.66-.38,1.37-1.26,4.58-2.52,9.53-1.57,5.91-3.38,14.52-5.86,27.87-1.15,1.15-2.22,2.18-3.17,3.1-1.28,1.23-2.38,2.3-3.18,3.16-1.62,1.52-2.9,3.08-3.74,4.56-1.39,2.01-.77,3.6.29,4.44ZM313.58,52.64c3.99-2.86,7.86-5.53,11.79-8.13-.33,9.61-.93,18.45-1.83,26.93-3.99-.42-7.33-1.82-9.95-4.19-1.62-4.82-1.62-9.61-.02-14.61Z"/><path class="cls-1" d="M387.25,45.91c-1.04-1.04-2.98-1.87-5.97-2.94-2.77-.99-6.6-.68-11.67.96-.01-.37-.03-.8-.05-1.29-.03-.86-.07-1.89-.12-3.07-.16-4.59-.96-5.38-1.8-5.55-.61-.12-1.42-.13-2.22-.01-1.71.21-1.98,2.58-1.88,6.32.09,3.05.01,5.07-.25,6.42-4.57,1.71-8.79,4.09-12.57,7.07-5.39,4.26-6.28,5.81-6.46,6.69-.03.16-.06.32-.07.46-.44-.48-.89-1-1.33-1.54-.68-1.12-1.15-2.36-1.44-3.82-.41-2.06-1.25-3.1-2.48-3.1-.98,0-1.81.4-2.76,1.35-.6.7-1.12,2.01-.16,4.25v.03c.39.82.74,1.69,1.11,2.61.29.72.58,1.45.89,2.16l.66,1.11.11.15c3.26,3.7,5.83,5.85,8.02,6.74,2.23,1.06,4.25,1.6,6.03,1.6,1.87,0,3.21-.55,4.05-1.64.41-.47,1.51-1.72.78-2.81-.4-.6-1.22-.83-5.61-1.82-1.58-.36-3.19-1.17-4.82-2.42.12-.04.24-.1.35-.18.46-.31,2.05-1.83,4.17-4.14,2.12-2.21,6.14-4.55,11.4-6.64.32,22.53.63,32.33,1.1,34.83.38,2.12,1.2,4.95,3.92,5.12.14,0,.27.01.41.01,1.68,0,3.07-.68,4.25-2.1.78-1.01,1.71-2.48,1.71-3.71,0-.8-.35-1.23-.64-1.45-.3-.22-.82-.44-1.63-.21-.23.07-.44.13-.63.19-.23.07-.52.16-.6.17h-.16l-.15.05c-.07.02-.18.05-.32.07-.44-13.29-.84-25.83-.96-35.5,4.31-1.35,8.54-1.85,12.58-1.48,1.56,2.89,1.17,5.4-1.18,7.84-3.1,2.99-4.93,4.95-5.92,6.34-1.11,1.56-1.63,1.84-1.79,1.88-.52.03-.99.24-1.33.62-.31.35-.66.99-.55,2.08.2,1.98,1.25,2.4,2.1,2.4.89,0,2.18-.69,6.25-3.37,3.44-2.29,5.88-5.15,7.47-8.74,1.6-3.76,2.19-6.1,1.97-7.82-.23-1.69-.81-3.09-1.79-4.17Z"/><path class="cls-1" d="M452.74,85.42h-.01c-.86-1.12-2.25-1.67-4.23-1.7-6.96-2.21-12.56-4.64-16.22-7.04-5.58-3.57-6.59-3.42-7.08-3.35l-.13.03c-.79.23-1.73.85-1.73,2.56,0,1.12,1,2.48,6.14,6.13,4.18,2.86,8.64,5.12,13.21,6.71,3.16,1.18,5.45,1.77,7.06,1.77,1.21,0,2.03-.33,2.56-.97,1.66-2.03.85-3.57.43-4.13Z"/><path class="cls-1" d="M414.7,47.9c.96.29,2.09.05,3.36-.73,11.08-6.87,22.32-13.13,33.42-18.61,7.94,4.98,13.01,12.26,15.06,21.6.25,1.82-.2,3.12-1.49,4.23l-.64.6c-1.13,1.05-2.11,1.96-2.92,2.77-.31.34-1.12,1.26-.77,2.2.11.31.45.84,1.4.96.15.02.3.02.46.02,1.13,0,2.47-.42,3.88-1.21,1.9-.89,3.53-1.84,4.97-2.9,1.95-1.43,1.79-5.47-.53-13.08-1.96-6.85-6.38-12.9-13.51-18.47,1.02-1.08,2.18-1.97,3.54-2.68,1.77-1,2.87-1.9,3.5-2.92.38-.77.67-2.24-1.69-3.51-.92-.54-2.92-1.09-5.95,1.3-1,.84-2.01,1.61-2.99,2.37-.55.43-1.09.84-1.62,1.26-14.28-9.85-14.96-9.85-15.56-9.85-.64,0-1.77.27-2.18,2.08-.25,1.15-.23,1.94.05,2.49.23.57.87,1.24,11.5,8.88-11.78,5.95-19.8,10.12-25.16,13.07-4.99,2.75-7.66,4.97-8.16,6.77-.17.59-.11,1.17.16,1.66.54,1.12,1.3,1.56,1.86,1.72Z"/><path class="cls-1" d="M571.33,80.25c3.58-3.38,6.41-6,8.36-7.77,2.19-1.86,3.28-3.74,3.15-5.44v-.09c-.38-2.21-1.63-2.61-2.41-2.63-2.8-.44-4.84.56-5.73,2.85-.67,1.83-2.27,3.92-4.74,6.21-2.41,2.23-5.78,4.2-10.01,5.88-2.89-2.65-5.01-5.81-6.18-9.21-1.66-4.2-4.93-6.33-9.73-6.33h-.19l-.17.07c-6.18,2.38-11.46,5.07-15.73,8.03-2.99,2.21-5.59,3.72-7.46,4.36-3.66-16.82-2.15-33.42,4.48-49.38l.06-.22c.4-2.42.44-4.53.1-6.44l-.04-.14c-.66-1.98-1.72-2.98-3.15-2.98-1.06,0-2.46.43-3.16,2.53-4.4,15.72-6.64,32.09-6.64,48.67v.16c.45,2.61.88,5.58,1.21,7.88.46,3.2,1.52,5.35,3.18,6.42,1.79,1.07,3.84.99,6.46-.26,2.39-1.2,5.6-3.42,9.27-6.41,3.51-2.77,7.76-4.79,12.63-6,2.04,1.73,3.69,3.92,5.14,6.83,1.52,3.26,3.97,5.96,7.28,8.03l.2.12.23.02c.63.06,1.25.1,1.86.1,4.37,0,8.31-1.63,11.73-4.86Z"/><path class="cls-1" d="M40.52,164.05c-2.23-1.23-5.99-1.03-11.46.62-4.87,1.4-10.64,5.52-17.6,12.56,1.1-18.56,6.91-34.94,17.28-48.71,2.59-3.52,4.52-5.9,5.9-7.29l.07-.08c.63-.77,2.54-3.13,1.03-4.64-1.09-1.09-3.06-.29-7.8,3.2-3.91,2.88-8.4,10.31-13.73,22.71-5.22,12.15-8.07,22.53-8.48,30.85h0c-.52,10.83-.08,13.89.41,15.17.13,1.39,1.65,3.32,11.09,4.96,1.65.33,3.28.5,4.91.5,5.51,0,10.9-1.9,16.35-5.75,7.04-4.83,9.76-9.89,8.07-15.07-1.83-4.96-3.76-7.83-6.06-9.03ZM38.31,170.2c1.22.98,1.95,2.59,2.23,4.93.25,2.22-1.92,5.17-6.64,9.02-4.71,3.85-9.33,5.19-13.73,4-5.09-1.25-6.31-2.46-6.51-3.19,4.66-7.34,10.87-12.31,18.49-14.79,2.88-.99,5.04-.99,6.15.04Z"/><path class="cls-1" d="M112.17,172.57c.26-9.56.44-15.7.54-18.7,2.07-.66,3.85-1.23,5.35-1.72,2.12-.69,3.65-1.18,4.6-1.45,1.8-.4,3.72-.78,5.63-.88,1.01-.05,2.43-.23,2.99-1.29.35-.67.26-1.45-.33-2.41-1.06-1.42-2.34-2.2-3.6-2.2-.9,0-2.6.22-4.83.63l-1.22.29c-1.59.37-2.97.7-4,1.02-1.29.34-2.83.89-4.39,1.49.1-2.87.27-6.7.51-11.83,3.66-.89,7.35-1.58,10.93-2.25.01.62.18,1.21.49,1.77.23.53.65.89,1.17,1.02.91.23,2-.25,3.76-1.63,1.82-1.41,3.14-2.71,3.78-3.74.49-.99.55-2.1.18-3.59-.32-1.27-.67-2.09-1.46-2.23-.35-.06-.69.04-.94.28-1.13.48-8.83,2.31-11.41,2.92-4.6,1.13-10.25,2.42-16.8,3.92-4.03.92-8.42,1.92-13.19,3.03.76-3.97,1.36-6.62,1.8-7.92.36-1.36.82-2.49,1.39-3.44.54-.91.7-1.67.49-2.32-.11-.35-.39-.83-1.07-1.12-.7-.3-1.41-.61-2.15-.82-1.09-.44-2.12-.12-2.73.9-.29.58-.87,2.06-1.83,4.51l-.31.78c-1.08,2.85-2.27,8.02-3.73,16.29-1.19,3.16-1.44,5.61-.77,7.52,1.06,2.82,2.97,3.12,4.02,3.05.87-.07,2.89-.69,2.72-4.84-.08-1.91.11-3.84.52-5.39,4.1-1.43,7.55-2.45,10.78-3.19,2.43-.5,4.48-.99,6.29-1.42.57-.14,1.11-.26,1.61-.38-.37,5.03-.59,8.93-.68,12.39-2.72.87-6.32,1.99-10.77,3.27-5.11,1.36-8.15,2.94-9.05,4.74-.83,1.77-1.2,3.62-1.09,5.42,0,2.08.44,7.69,1.22,15.45-16.26,4.31-16.43,4.89-16.68,5.77-.26.93-.16,1.85.37,3.02.84,1.68,3.5,1.13,6.11.43,14.72-3.31,25.07-5.71,29.13-6.76-.08,2.1-.17,4.13-.25,6.1-.19,4.66-.37,8.95-.5,12.83-.35,6.93.32,8.58,1.1,9.34.35.34.77.51,1.24.51.05,0,.1,0,.14,0,1.54-.12,2.43-.36,2.95-.81.51-.36.82-.92.98-9.77.1-5.59.38-12.38.85-20.21,19.48-4.44,29.96-6.64,31.03-6.63,1.41.31,2.45-.3,2.79-1.66.27-1.22-.12-2.38-1.17-3.42-.69-.69-1.54-1.54-32.47,5.35ZM106.08,156.23c-.21,5.78-.36,11.91-.44,18.27-5.5,1.05-9.81,2.01-13.4,2.97-.48-3.39-.58-8.63-.33-16.28,2.64-1.11,7.35-2.69,14.17-4.96ZM125.8,134.72s0,0,0,0h-.01s.01,0,.01,0Z"/><path class="cls-1" d="M176.43,199.09c-.48-3.64-1.45-13.24-2.74-29.32,7.98-4.62,16-9.89,23.87-15.7.15.32.35.59.6.8.35.29.98.61,1.97.43,1.26-.23,1.98-.45,2.24-.54l.24-.12c.41-.27.86-.58,1.51-6.23,1.22-1.53,1.9-2.56,2.03-3.46.07-.5.06-1.64-1.3-2.44.52-4.58-.52-9.7-3.08-15.23l-.17-.26c-2.42-2.63-5.96-3.75-10.8-3.42l-.16.02c-5.54,1.27-10.79,3.76-15.65,7.41.04-.86.08-1.66.08-2.34,0-2.69-1.84-2.9-2.4-2.9-.67,0-1.88.12-2.43.95l-.06.11c-.22.44-.55,1.9-1.99,9.78-1.02,6.02-1.32,15.05-.91,27.64.96,14.14,1.96,25.78,2.9,33.65,1.06,8.95,2.28,12.28,4.49,12.28,1.78,0,2.95-.52,3.57-1.6.62-1.08.46-2.33-.35-3.28-.08-.11-.75-1.18-1.42-6.25ZM173.66,158.82c.96-.45,2.51-1.8,5.55-5.57,2.96-3.68,6.06-6.38,9.21-8.05,3.42-1.91,5.3-2.9,5.53-3.02,0,0,.36-.15,1.68-.15,2.17,0,2.72-.99,2.86-1.51.28-.8.04-1.87-.41-3.21l-.05-.13c-.66-1.32-1.71-2.16-3.04-2.42-1.16-.36-2.86.49-7.62,3.74-3.43,2.35-7.87,6.4-13.89,12.67.11-3.18.41-6.84.91-10.93,2.76-3.23,5.77-5.8,8.95-7.66l.23-.19c1.84-2.01,4.23-3.08,7.29-3.27,2.8-.09,4.88.55,5.9,1.81,2.33,5.66,2.73,10.55,1.2,14.95-7.04,7.09-15.36,12.8-24.76,16.98-.05-1.28.1-2.59.45-4.03Z"/><path class="cls-1" d="M221.94,190.69l-.14-.09c-.57-.38-1.49-.24-2.39.08,2-7.26,2.81-12.51,2.53-16.42-.34-4.87-1.32-7.63-3.02-8.65-1.52-1.08-4.14-1.93-8.02-2.57h-.09s-.09-.01-.09-.01c-6.45.09-12.28,2.11-17.75,6.16.1-1.08.12-2.05.06-2.86-.07-.67-.37-1.22-.87-1.6-.67-.49-1.62-.62-2.83-.38-1.49.32-2.97,2.21-2.69,13.8.2,8.46,2.4,16.95,6.52,25.25.06.4.25.76.57,1.05.59.53,1.57.79,3.14.79.62,0,1.32-.04,2.13-.11,3.04-.19,6.9-1.31,12.11-3.51.54.42,1.07.48,1.47.45,1.39-.12,2.7-1.57,4.37-4.83,4.75-1.73,5.48-2.99,5.58-3.88.13-1.06-.03-1.91-.49-2.52l-.1-.14ZM213.77,179.23c-6.54,2.6-13.01,5.93-19.73,10.16-.79-4.3-1.18-8.34-1.2-12.3,5.59-6.46,12.76-8.93,21.32-7.34.41.43.98,1.33,1.63,3.19.57,1.71.68,3.73.32,6.15-.68-.28-1.51-.39-2.35.15ZM214.92,185.18c-.7,3.32-1.86,6.48-3.51,9.6-4.57,2.34-9.2,3.84-14.12,4.56-.71-1.33-1.35-2.82-1.93-4.45,6.66-3.7,13.08-6.89,19.56-9.71Z"/><path class="cls-1" d="M245.19,124.39l-.06-.09c-2.92-3.75-6.66-5.33-11.13-4.69-4.22-.3-7.85.53-11.09,2.56h-.01c-2.71,1.76-5.55,3.46-8.36,5.13,0-.04.01-.07.02-.11.22-.55.35-1.69-1.26-3.12l-.11-.08c-1.71-1.14-2.82-.61-3.46.03-.27.27-1.08,1.08-2.18,8.46-.74,4.88-.57,11.83.5,20.08l.07.53.48.24c.16.08.54.54.65,3.15.08,1.93.37,4.2,1.85,4.7.22.09.44.18.63.26.3.12.65.26.76.33.6.4,1.12.41,8.15-1.88,4.13-1.26,10.63-4.21,21.59-9.81-.3,30.99-.79,48.05-1.46,50.72-.58,2.42-.57,3.84.05,4.76.35.52.89.86,1.64.97.18.01.35.02.52.02,1.28,0,2.37-.41,3.17-1.21.94-.94,1.48-2.92,1.69-6.24.14-2.11.48-8.2.7-19.03.24-7.48.44-20.94.1-42.63,0-4.96-1.16-9.35-3.45-13.03ZM223.83,146.34c3.1-1.4,5.8-2.62,8.1-3.69,4.06-1.72,7.43-2.76,10.23-3.18l-.27,3.91-1.27.6c-8.65,4.06-16.85,7.91-24.8,11.78,0-1.46-.29-3.24-.87-5.37,3.26-1.5,6.22-2.83,8.89-4.04ZM214.27,135.2c2.98-2.94,6.5-5.63,10.47-8.02,3.79-2.18,8.14-2.61,12.93-1.3l.11.02c2.5.39,3.98,2.81,4.38,7.19-2.3.3-5.94,1.47-11.53,3.71-2.56,1.13-5.14,2.24-7.71,3.35-2.92,1.25-5.92,2.55-8.85,3.85-.4-2.46-.33-5.35.2-8.8Z"/><path class="cls-1" d="M340.5,167.82c-4.59-7.82-11.23-12.36-19.72-13.48-7.18-1.04-13.94.28-20.11,3.92.55-4.44,1.24-8.93,2.15-13.95,15.56-7.33,18.33-8.79,19.05-9.24,1.18-.75,1.95-1.66,2.57-3.03.27-.59.57-1.46.14-2.22-.29-.51-.81-.8-1.53-.88-.39-.05-1.6-.2-5.47,1.9-1.22.61-2.96,1.46-5.22,2.56-2.09,1.02-4.61,2.25-7.57,3.7,2.8-8.97,2.29-9.74,1.99-10.18-.54-.9-1.61-1.27-2.73-.95-.72.21-1.33.41-1.64.51l-.13.05c-.29.14-1.05.52-2.38,4.02-.96,2.35-1.81,5.79-2.48,9.99-7.35,3.34-13.15,5.81-17.23,7.34-1.92.67-3.47,1.21-4.62,1.6-1.27.44-2.06.71-2.26.79-.73.24-1.57.94-1.38,2.85h0c.08.71.54,2.29,3.17,2.1l.25-.05c6.76-2.35,13.71-5.11,20.7-8.23-1.09,5.48-1.7,10.71-1.81,15.59-8.77,6.98-13.88,14.55-15.2,22.52-1.88,10.58,2.5,14.18,6.43,15.31,2.79,1.07,5.47.93,8.25-.46,1.99-1.12,3.96-2.28,6.16-3.61,2.38,2.26,3.34,2.34,4.01,2.07.65-.26,1.29-.76,1.81-1.4l.08-.11c.2-.34.73-1.22-.83-5.37,5.16-7.26,11.33-17.36,18.36-30.05,5.84,1.89,9.81,5.65,12.11,11.46-.51,7.59-1.88,12.81-4.19,15.95-2.93,3.99-5.08,5.63-6.36,6.31-2.38,1.25-3.54,2.62-3.54,4.19,0,.54,0,2.2,1.18,2.98.31.25.7.37,1.18.37.9,0,2.13-.45,3.78-1.35,2.35-1.12,5.63-4.67,9.84-9.67,4.55-5.5,5.66-13.43,3.3-23.56l-.11-.28ZM300.4,166.66c4.63-4.79,9.95-6.83,16.2-6.2-3.14,8.99-7.81,17.37-13.89,24.94-2.12-6.53-2.87-12.68-2.31-18.74ZM297.75,190.83c-6.02,4.14-8.19,4.02-8.93,3.73-1.6-.48-2.57-1.57-2.9-3.2-.28-1.8-.19-4.18.29-7.25.35-1.83,2.03-5.43,7.8-12.37.33,6.29,1.56,12.57,3.73,19.09Z"/><path class="cls-1" d="M418.56,132.53c-.91-2.16-1.65-3.46-2.42-4.22l-.12-.11c-1.14-.82-2.53-.6-3.57.6-.69.89-1.05,3.06,1.01,12.82,1.46,6.9,1.06,17.42-1.19,31.24-3.31,9.23-6.25,15.68-8.75,19.18-3.48,5.01-3.87,6.51-3.77,7.39.07.57.36,1.02.82,1.27.26.14.55.22.88.22.56,0,1.24-.2,2.14-.62,1.47-.74,2.76-1.59,3.78-2.51.94-.75,2.5-3.34,7.69-14.37,3.98-8.77,5.79-19.05,5.39-30.56-.51-11.76-1.12-18.4-1.88-20.35Z"/><path class="cls-1" d="M386.21,165.89l-.21-.06c-.65-.11-1.68-.18-2.84-.21-1.9-10.08-2.22-17.81-.96-22.97,1.78-7.13,1.78-8.77,1.04-9.65-.68-.68-1.67-.99-3.11-.99s-2.5.67-2.94,1.85l-.05.2c-.76,5.1-1.33,10.58-1.71,16.27-.5,6.17.54,12.69,3.16,19.92l.14.4.38.17c1.49.68,2.76,1.02,3.85,1.02.75,0,1.41-.16,2-.48,1.33-.85,2.17-1.85,2.43-2.9l.02-.1c.17-1.17-.29-2.1-1.22-2.47Z"/><path class="cls-1" d="M499.84,146.42c-.56-.42-2.26-1.7-10.61,1.25-5.09,1.63-11.22,5.14-18.24,10.44-.27-3.88-.33-7.32-.16-10.23.22-3.72-.6-6.45-2.32-7.67l-.16-.09c-1.02-.48-1.91-.53-2.64-.14-.76.4-1.26,1.24-1.46,2.48v.16c-.01,6.1.08,12.74.27,20.29-4.89,3.44-8.36,6.61-10.3,9.43-.9,1.24-3.63,5.01-1.65,6.74l.1.08c1,.67,2.74.8,5.31-2.37,1.99-2.27,4.59-4.76,7.59-7.25,1.19,8.67,2.93,16.12,5.32,22.73l.11.22c.92,1.38,2.02,1.79,3.01,1.79.44,0,.85-.08,1.21-.19.9-.28,1.5-.76,1.79-1.44.31-.73.22-1.61-.26-2.6-3-8.32-4.67-16.56-5.1-25.16,6.46-5.34,11.88-8.85,16.56-10.73,4.04-1.65,6.95-2.19,8.68-1.6-.69,9.51-1.83,16.97-3.42,22.21-1.58,5.67-2.38,7.16-2.63,7.52-.71.11-1.21.24-1.61.49-.49.27-1.17.98-.77,2.78.22,1,1.07,2.23,3.82,2.38,1.48.09,3.41-.38,4.2-3.07,2.98-8.65,5.11-15.92,6.34-21.65,1.07-5.87,1.21-9.65.45-11.95-.91-2.28-2.05-3.87-3.43-4.83Z"/><path class="cls-1" d="M519.7,126.81c.46-1.53.4-2.72-.16-3.54-.3-.44-.9-.97-2.03-1.05-.79-.05-3.16-.21-3.53,1.34-.25.81-.33,2.5-.23,4.96,0,2.78.64,5.4,2.01,8.25,1.83,3.66,2.77,4.57,3.65,4.82.35.09.7.13,1.04.13.67,0,1.34-.16,2-.48.72-.29,1.06-.77,1.21-1.12.27-.61.24-1.34-.12-2.24-.51-1.01-.98-1.97-1.51-3.21-.6-1.2-1.28-2.55-1.96-4.3l-.03-.06c-.65-1.38-.78-2.51-.4-3.36l.05-.13Z"/><path class="cls-1" d="M532.48,134.73c-1.64-5.57-2.06-10.5-1.27-15.04.32-.9.31-1.67-.04-2.31-.37-.68-1.09-1.12-2.12-1.33-.72-.15-1.43-.02-2.04.39-1.05.71-1.77,2.19-2.16,4.42-.52,3.11-.32,6.83.61,11.37.64,3.13,1.85,7.3,4.92,7.3h0c.16,0,.31.01.46.01,1.08,0,1.9-.26,2.45-.78.43-.4.66-.94.66-1.54,0-2.01-.85-2.44-1.46-2.49Z"/><path class="cls-1" d="M517.32,148.44c-1.01-5.46-2.28-11.62-2.83-12.53l-.08-.11c-.58-.73-1.41-1.22-2.46-1.45l-.11-.02c-1.7-.19-2.38.56-2.64,1.22-.17.42-.42,1.05,1.75,13.25,1.33,7.1,2.92,15.42,4.61,23.34,1.97,8.69,3.52,12.07,5.7,12.46.32.06.62.09.89.09.67,0,1.21-.18,1.62-.55.59-.52.84-1.33.77-2.49l-.02-.17c-2.79-11.91-5.21-23.04-7.19-33.05Z"/><path class="cls-1" d="M613.84,179.32c-.53,0-1.13,0-10.82,5.85-6.09,3.73-12.52,6.08-19.11,6.96-6.79.9-11.12.86-13.25-.12-2.4-1.1-4-2.6-5.04-4.77-.75-1.38-.6-4.8,4.38-13.22,4.02-6.8,10.33-13.5,18.75-19.92,11.97-9.23,12.78-11.17,12.57-12.39-.09-.46-.39-.83-.82-1.03-.56-.25-1.86-.84-9.44,3.55-5.56,3.07-11.39,8.2-17.76,15.67-1.62-7.71-2.54-13.37-2.96-18.18-.51-5.65-1.46-9.42-2.84-11.26-.74-.86-1.63-1.71-2.72-1.6-.69.08-1.27.54-1.72,1.38-.81,1.51-.96,2.91-.47,4.39.19.56.67,2.59,1.05,9.24.3,5.27,2.16,12.14,5.66,20.99-3.71,4.86-6.42,9.04-8.08,12.45-1.64,3.72-2.42,5.57-2.65,6.54-.35,1.12-.15,2.93.6,5.53.67,2.63,3.26,5.41,7.72,8.28l.15.1.18.04c3,.65,6.05.98,9.18.97,7.28,0,14.96-1.77,23.22-5.33,13.88-5.86,16.34-8.14,16.92-9.6.25-.62.14-1.11.01-1.4-.9-2.19-1.72-3.12-2.72-3.12Z"/><path class="cls-1" d="M661.86,132.06c2.14,1.97,4.84,5.21,8.73,10.5.23.43.83,1.45,1.82,1.45.04,0,.08,0,.12,0,.7-.06,1.22-.59,1.53-1.51.69-1.72-.51-4.77-1.63-7.02-1.59-3.18-3.76-5.94-6.48-8.24-3.19-2.51-5.3-3.32-6.9-2.59-1.03.56-1.6,1.17-1.74,1.86-.09.44,0,.88.27,1.25.41.73,1.54,1.8,4.27,4.3Z"/><path class="cls-1" d="M685.92,153.05c-1.61-2.99-5.83-4.34-12.53-4.03-6.68.31-12.96,3.04-19.22,8.35-8.09,7.13-9.4,9.73-9.62,11.19-.37,2.21.09,3.7,1.38,4.43.55.34,1.14.43,1.71.27.78-.22,1.43-.87,1.95-1.91,6.98-11.54,16.85-16.73,30.2-15.84,3.12,2.3,3.82,7.28,2.07,14.81-1.71,7.9-4.42,14.5-8.03,19.63l-1.5,2.09c-2,2.78-3.6,5-4.02,5.45-.3.15-.74.4-1.28.7l-.68.38c-1.17.65-1.81,1.74-1.81,3.07,0,.8.34,2.26,2.67,2.97.16.04.33.06.51.06,1.3,0,3.37-1.14,7.8-6.81,3.77-4.72,7.39-11.67,10.76-20.68,3.53-9.44,3.41-17.33-.36-24.13Z"/></svg>